<svg xmlns="http://www.w3.org/2000/svg" width="28" height="42"><path d="M17.067 38.55c-.256 1.94-.399 3.217-.4 3.222.065-.954.211-2.067.4-3.222M13.087.358l5.045 2.955.054.023a9.56 9.56 0 00-.087.365c3.271 2.45 7.118 5.944 7.803 9.218l.042.02c1.629-.227 1.26-.195 1.99-.31 0 0-.409 1.726-.929 4.322l-.565 9.496-1.204 1.435v.004l-.358 7.831c-2.377 2.674-5.288 4.26-5.288 4.26-.88.59-1.856 1.2-2.922 1.795.015-.223.422-6.027 1.724-11.829 0 0-1.25-.7-2.574-1.414l-.38-.204a80.5 80.5 0 00-1.272-.67l-.252-.125c-.393-.196-.647-.32-.647-.32l6.247-2.67 1.44-.615.616.346.122.63-.019.006.57 3.5.281-3.779.074-.99-.623-.282 2.407-1.252v-6.88l-3.836 2.487-1.231-3.245-.958-2.054.974 6.057-.517.336.003.028-5.685 3.686L13.086.358zM1.79 15.188l1.032 1.77-1.104 5.143 11.055 5.108-5.402 2.704 1.55 11.859S7.332 30.735 5.806 29.796l4.233-2.22L.87 22.163l1.061-5.283-.141-1.692zM.416 23.803s2.456 8.458 1.96 11.56c-.062.39 2.952 3.486 2.952 3.486-1.234-.58-3.643-3.121-3.643-3.121.285-.546.048-3.06-.294-5.639l-.084-.62c-.4-2.887-.891-5.666-.891-5.666zm14.28 8.747s.432-.19.296.483c-.137.674-.433 1.21-.25 1.71.181.501-1.742.691-1.838.64 0 0-.55-1.193-.346-1.59.205-.397.296-.846.296-.846s1.614-.259 1.842-.397zm-3.298-2.073l4.39.12v.459h-.114v.354l-2.798.224c.01-.471-1.478-1.157-1.478-1.157zm9.12-10.698v.442l-.707.432a3.08 3.08 0 01-.255 1.618c-.056.117-.279.629-.44.651l.65-.09c-.795 1.833-1.565 1.542-1.565 1.542l.524-.703c-.88.343-2.546.719-3.126-.364.918.325 1.959.218 2.748-.37.634-.473 1.355-1.446 1.45-2.276l-4.744 2.892 5.466-3.774zm-2.273 1.887s-.243.712-.46.866c-.215.153-.921 0-.921 0l.43-.276zm-10.626 0l.951.59.43.276s-.706.153-.922 0c-.215-.154-.46-.866-.46-.866zm2.834-19.784S6.127 6.602 5.42 7.297c.364-.163 1.401.359 1.401.359-1.88.655-3.823 2.61-4.676 3.546l-.172.19c-.127.144-.214.246-.253.293l-.024.028c.467-3.32 8.757-9.831 8.757-9.831z" fill="#FFF" fill-rule="evenodd"/></svg>