<svg xmlns="http://www.w3.org/2000/svg" xmlns:xlink="http://www.w3.org/1999/xlink" width="201" height="663"><defs><path id="a" d="M.023.458h200v662h-200z"/><path id="c" d="M.872.083h235.793v659.416H.872z"/></defs><g fill="none" fill-rule="evenodd" opacity=".05"><mask id="b" fill="#fff"><use xlink:href="#a"/></mask><g mask="url(#b)"><path fill="#FEFEFE" d="M198.239 498l43.974-3.493v-5.505H244v-7.123L175 480s23.395 10.663 23.238 18m28.617 15.388c-3.63 2.173-29.407 6.24-29.407 6.24s-1.453 7.054-4.72 13.29c-3.268 6.238 5.528 24.952 5.528 24.952 1.532.816 32.23-2.167 29.325-10.031-2.904-7.87 1.815-16.277 3.994-26.857 2.178-10.577-4.72-7.594-4.72-7.594M122.319 352.904c3.436 2.466 14.681 0 14.681 0l-6.843-4.437L115 339s3.881 11.438 7.318 13.904"/><g transform="translate(200)"><mask id="d" fill="#fff"><use xlink:href="#c"/></mask><path fill="#FEFEFE" d="M64.086 608.19c-4.064 30.91-6.325 51.233-6.335 51.303 1.023-15.192 3.342-32.907 6.335-51.304M205.06 200.42c-.218-.109-.44-.218-.661-.334-10.88-52.129-71.971-107.75-123.927-146.778.446-1.92.868-3.82 1.396-5.806l-.859-.36L.872.084l.726 352.866 90.28-58.699-.04-.447 8.214-5.341-15.483-96.448 15.216 32.71 19.553 51.671 60.92-39.608V346.33l-38.23 19.933h.003-.003l9.892 4.498-1.169 15.765-4.459 60.178-9.054-55.741.306-.092-1.948-10.027-9.783-5.518-22.86 9.794-99.215 42.508h.003c.003.003 5.803 2.855 14.284 7.094 26.602 13.713 67.117 36.425 67.117 36.425 0 .003-.003.006-.003.01-21.065 94.089-27.378 188.211-27.388 188.342a656.014 656.014 0 0046.408-28.607v.016s46.225-25.244 83.972-67.805l.006-.006v-.006l5.676-124.686c.003-.025.006-.046.006-.067l19.117-22.846 8.978-151.197c8.263-41.34 14.752-68.833 14.752-68.833-11.586 1.832-5.737 1.336-31.607 4.958" mask="url(#d)"/></g><path fill="#FEFEFE" d="M196 427.274L20.472 345.995l17.52-81.842L21.601 236l2.246 26.91-16.848 84.076 145.583 86.121-67.21 35.322C109.608 483.377 134.837 659 134.837 659L110.23 470.296 196 427.274zM0 373s30.106 171.059 20.149 190.211c0 0 38.26 40.545 57.851 49.79 0 0-47.86-49.388-46.87-55.62C39.001 507.92-.001 373.002-.001 373.002m101.943-256.797s-16.58-8.336-22.405-5.736C90.837 99.378 160 24 160 24S27.46 127.968 20 181c0 0 41.862-50.84 81.942-64.795"/></g></g></svg>