<svg xmlns="http://www.w3.org/2000/svg" width="34" height="34"><path d="M17 12.723a4.755 4.755 0 00-4.75 4.749A4.755 4.755 0 0017 22.22a4.754 4.754 0 004.749-4.748c0-2.619-2.13-4.75-4.749-4.75zm0 12.275c-4.15 0-7.527-3.376-7.527-7.526S12.85 9.945 17 9.945s7.527 3.377 7.527 7.527S21.15 24.998 17 24.998zm-3.166 6.2h6.332v-3.9l.848-.358c.856-.362 1.659-.84 2.384-1.417l.741-.589 3.44 1.985 3.166-5.485-3.596-2.076.086-.89c.033-.333.047-.666.047-.996 0-.509-.037-1.019-.112-1.516l-.139-.936 3.714-2.144-3.167-5.485-3.873 2.236-.727-.52a10.215 10.215 0 00-1.964-1.104l-.848-.358V3.112h-6.332v4.533l-.849.358c-.689.292-1.348.663-1.964 1.103l-.726.521-3.874-2.236-3.166 5.485 3.713 2.144-.138.936a10.192 10.192 0 00-.066 2.511l.086.89-3.595 2.077 3.166 5.485 3.44-1.985.742.589c.727.58 1.528 1.055 2.382 1.417l.849.358v3.9zm6.725 2.778H13.44a2.388 2.388 0 01-2.385-2.386v-2.487c-.488-.248-.96-.529-1.411-.837L7.47 29.52a2.366 2.366 0 01-1.81.239 2.373 2.373 0 01-1.45-1.112L.65 22.484a2.393 2.393 0 01.873-3.26l2.42-1.396a12.635 12.635 0 01.031-1.329l-2.45-1.414a2.391 2.391 0 01-.873-3.26l3.56-6.162a2.39 2.39 0 011.447-1.112 2.415 2.415 0 011.812.239l2.692 1.554c.29-.18.589-.347.893-.503v-3.12A2.389 2.389 0 0113.44.334h7.118a2.387 2.387 0 012.384 2.386v3.121c.305.156.603.324.894.503l2.691-1.554a2.428 2.428 0 011.813-.24 2.4 2.4 0 011.448 1.116l3.559 6.16a2.392 2.392 0 01-.873 3.26l-2.451 1.413a12.654 12.654 0 01.031 1.329l2.419 1.396a2.392 2.392 0 01.874 3.26l-3.56 6.163a2.368 2.368 0 01-1.449 1.112 2.37 2.37 0 01-1.812-.239l-2.171-1.254c-.453.308-.924.589-1.413.837v2.487a2.388 2.388 0 01-2.384 2.386z" fill="#FFF" fill-opacity=".25" fill-rule="evenodd"/></svg>