<svg xmlns="http://www.w3.org/2000/svg" xmlns:xlink="http://www.w3.org/1999/xlink" width="114" height="100"><defs><path id="a" d="M0 0l.043 29.807s1.54 15.146 8.092 28.256c.291.582.607 1.141.91 1.711l.133.249c9.411 17.545 24.717 29.667 45.575 36.036 20.858-6.369 36.164-18.491 45.575-36.036l.132-.249c.304-.57.62-1.129.911-1.711 6.553-13.11 8.092-28.256 8.092-28.256L109.506 0H0z"/></defs><g transform="translate(2 2)" fill="none" fill-rule="evenodd"><mask id="b" fill="#fff"><use xlink:href="#a"/></mask><use stroke="#FF8003" stroke-width="3" xlink:href="#a"/><path fill="#CF7926" d="M55 0v99.502H-2.687V-5.161z" mask="url(#b)"/><path fill="#FF8003" d="M113 0v99.502H55V-5.161z" mask="url(#b)"/><path fill="#000" fill-opacity=".15" stroke="#FFF" stroke-opacity=".5" stroke-width="3" d="M6.55 5l.039 26.375s1.362 13.403 7.16 25.003c.257.515.537 1.01.805 1.514l.118.22C22.999 73.639 36.543 84.365 55 90c18.457-5.636 32-16.362 40.328-31.887l.117-.22c.269-.505.549-1 .806-1.515 5.799-11.6 7.16-25.003 7.16-25.003L103.45 5H6.551z" mask="url(#b)"/></g></svg>