<svg xmlns="http://www.w3.org/2000/svg" width="167" height="203"><g fill="none" fill-rule="evenodd"><path fill="#F5BB0C" d="M121.75 153.897l5.379 1.116c-8.694 17.122-23.295 28.709-43.435 34.467v-3.726c-11.705-3.437-18.213-6.85-26.688-14.002-5.058-4.27-9.441-10.035-12.99-17.134l1.805-.374c3.859 7.09 8.876 13.115 15.033 18.028 6.403 5.11 14.031 9.024 22.84 11.714 17.417-5.317 30.197-15.44 38.056-30.09zM47.797 88.653l.278 1.757h-9.514v37.001l-2.342-.34V88.653h11.578z"/><path fill="#000036" d="M44.016 154.618c3.549 7.1 7.932 12.864 12.99 17.134 8.475 7.153 14.983 10.565 26.688 14.003v3.725l.512 11.86-.512.132-.511-.132c-31.44-8.107-46.646-27.488-53.865-42.32-.077-.16-.15-.318-.226-.477l3.127-1.322 8.557-1.93zm-1.93-80.471l.46 2.441 4.179 5.273 1.072 6.792H36.219v38.418l-15.091-2.186-.001-50.738h20.958z"/><path fill="#001D43" d="M127.128 155.013l1.34.278 8.557 1.93 1.583.67a88.06 88.06 0 01-.537 1.132c-7.22 14.83-22.424 34.21-53.864 42.317l-.512.132v-11.991c20.14-5.76 34.74-17.347 43.433-34.468zM48.075 90.41l1.624 10.278.366-10.278H74.16l9.534.007h34.732l-.469 10.27 1.623-10.27h9.833v36.956l-10.18 1.475h.128l.055-.001.065-.001h.075l.28-.004.112-.001c1.434-.016 4.915-.064 9.43-.177 1.643-.04 3.422-.09 5.29-.149 3.65-.118 7.634-.275 11.594-.483l10.487-.795h5.284v14.884l4.521 11.568h-45.806l1.002.208c-7.859 14.649-20.64 24.772-38.056 30.089-8.809-2.69-16.436-6.605-22.84-11.714-6.157-4.913-11.174-10.938-15.033-18.028l2.675-.555H26.954c-5.521-13.696-5.816-24.75-5.827-25.27v-.404c2.149.115 4.308.214 6.42.3l.842.034c10.352.407 19.363.493 20.05.499h.042l-9.92-1.438v-37h9.514zm77.532-16.457l20.655.2v50.778l-11.58 1.678V85.148h-14.27l.52-3.287 4.178-5.273.497-2.635z"/><path fill="#E0A929" d="M120.413 85.147l-.833 5.27h9.833v36.956l5.27-.764V85.147z"/><path fill="#000036" d="M34.085 128.547l.75.023h.01l.382.011c7.215.21 12.683.262 13.212.267h.042l-1.298-.188-8.622-1.249-1.196-.174h1.196V90.41h9.514l1.624 10.278.366-10.278h24.096l9.534.006v93.57c-8.81-2.69-16.437-6.605-22.841-11.715-6.157-4.912-11.174-10.937-15.033-18.027l2.67-.555H.835l4.522-11.568v-14.884h4.684c3.441.316 7.244.572 11.087.778l.02.001 1.27.066 1.289.063 1.287.06 1.28.057.85.036.424.017c.422.018.842.034 1.26.05l.418.016c1.661.063 3.283.118 4.836.165h-.001z"/><path fill="#FFF" d="M17.055 131.613c2.79.271 4.719 1.117 6.582 2.734a224.737 224.737 0 00-3.445 3.047c-.865-1.26-2.022-1.946-3.134-2.031-1.225-.094-2.699.574-2.698 1.97v1.541l.001 1.756v.43l.001 1.891v.549c.001 1.395 1.479 2.214 2.704 2.24 1.295.027 2.225-.503 3.019-1.686a220.869 220.869 0 003.569 3.46c-1.86 1.501-4.086 2.1-6.584 2.1-2.954 0-7.383-1.224-7.383-5.678v-7.374c0-4.455 4.42-5.236 7.368-4.95zm122.84 2.976c-.575.575-1.03 1.028-1.467 1.457l-.52.51c-.436.426-.892.868-1.468 1.424-.861-1.098-2.018-1.581-3.131-1.518-1.226.071-2.704.858-2.706 2.108-.005 2.264-.006 3.395-.012 5.659-.001 1.249 1.473 1.933 2.7 1.914.659-.01 1.334-.147 1.863-.516.336-.233.332-.48.343-1.05.013-.708.025-1.186.026-1.766l-1.431.044c-.461-1.25-.692-1.874-1.152-3.111 2.77-.12 4.155-.184 6.925-.32l-.016 10.166s-.953-.683-2.11-.679c-1.137.003-1.888.68-4.455.68-3.043.001-7.38-1.069-7.373-4.883l.013-6.31c.007-3.815 4.348-5.162 7.39-5.384 2.794-.203 4.722.264 6.582 1.575zm-65.28.84c2.547.034 3.821.046 6.368.058v2.694l.002 4.58v3.885l1.375.001h2.965c1.545 0 2.477-.399 3.273-1.397l1.748 4.186H76.305v-1.988l-.001-1.184v-.564l-.001-1.092v-.538l-.001-1.078v-.55l-.001-1.146-.002-2.59c0-1.239-.638-2.383-1.685-3.277zm31.402-.236c-.197.49-.457 1.144-.716 1.791l-.154.386c-.435 1.083-.828 2.047-.864 2.054-.19.032-1.726-1.383-3.271-1.355-1.746.033-2.619.046-4.365.07v.412l-.001.713v.33l-.001.673-.001.782c2.019-.02 3.027-.034 5.046-.062-.456 1.118-.684 1.645-1.163 2.759l-1.592.014-.702.006-1.592.011-.002 1.455v.673l-.001.781 4.363-.017c1.544-.008 3.224-1.448 3.274-1.439.104.017.508.992.9 1.997l.165.429c.353.923.656 1.756.656 1.756l-14.063.023.002-1.986V145.701l.001-1.091v-.537l.001-1.078v-.55l.002-1.145.001-2.59c0-1.238-.635-2.37-1.68-3.24a1089.48 1089.48 0 0015.757-.277zm-47.043-.145c2.546.09 3.82.129 6.366.196l.015 11.35c1.736.01 2.604.014 4.34.022 1.544.007 2.475-.392 3.27-1.39l1.753 4.21c-4.68-.001-9.36-.003-14.039-.006l-.008-4.944-.002-1.1-.008-4.945c-.001-1.27-.64-2.452-1.687-3.393zm-12.726-.992c2.808.152 4.213.222 7.022.346a1560.913 1560.913 0 005.82 15.002l-1.36-.001h-1.56l-.4-.001h-1.36c-.456-1.171-.684-1.76-1.141-2.937l-4.158-.041c-.272-.002-.545.168-.635.428l-.376.982-.22.576-.376.986h-.94l-1.208-.001h-1.171l-1.36-.002c1.752-4.73 2.63-7.053 4.383-11.638.476-1.226.132-2.611-.847-3.584l-.114-.115zm77.86-.128c-.005.005-.02.02-.069.077-.65.647-1.29 1.413-1.29 2.903l-.013 6.24-.012 6.246c-1.499.002-2.906-.929-4.946-3.16a432.016 432.016 0 00-4.376-4.724c-.006 3.157-.01 4.734-.014 7.89l-.491.001h-.876l-.402.001h-1.566l-.423.001h-.944l.018-10.558-.018-4.293 3.479-.066a465.575 465.575 0 015.874 6.258l.012-6.527c1.138-.056 1.933-.085 2.8-.122a384.08 384.08 0 003.257-.167zm-98.933-1.333c2.542.215 3.814.317 6.356.507l.011 6.187c1.862.088 2.793.13 4.655.21l-.01-6.061c1.88.13 2.82.19 4.7.307l.031 15.647-2.933-.003-.825-.001h-.943l-.014-6.745a904.58 904.58 0 01-4.656-.145l.013 6.886-4.68-.006-.01-5.809v-1.15c-.004-1.73-.006-3.51-.01-5.808-.002-1.475-.64-2.873-1.685-4.016zm132.527-1.451a685.69 685.69 0 01-1.724 5.496c-.156.026-1.724-1.662-3.266-1.538-1.742.14-2.614.208-4.355.339l-.003 1.973v1.613l2.14-.122.757-.044c.636-.037 1.3-.077 2.14-.128-.454 1.426-.682 2.097-1.16 3.505-1.552.063-2.328.094-3.881.154l-.002 1.248v.724l-.002 1.615c1.744-.033 2.616-.052 4.36-.088 1.545-.031 3.27-1.874 3.27-1.874.185.027 1.726 5.31 1.726 5.31-4.687.018-9.375.032-14.061.046l.007-5.898.002-1.168.008-5.899c.002-1.497-.632-2.827-1.674-3.792 5.243-.454 10.48-.944 15.718-1.473zM50.94 140.402c-.097 0-.746 1.944-1.176 3.105.946.02 1.418.028 2.363.045a99.828 99.828 0 01-.312-.811l-.132-.35c-.376-.995-.743-1.99-.743-1.99zm15.064-14.677v4.334c0 .504.414.787.89.787.476 0 .89-.283.89-.787v-4.334h1.826v4.49c0 1.564-1.534 2.003-2.715 2.003-1.183 0-2.708-.439-2.708-2.002v-3c0-.568-.246-1.09-.652-1.49h2.469zm16.765 0c1.35 0 2.708.347 2.708 1.92v2.57c0 1.564-1.359 1.911-2.708 1.911h-2.707v-4.91c0-.568-.247-1.089-.652-1.491h3.359zm4.366 0l6.111.009c-.22.631-.45 1.253-.67 1.884-.31-.458-.67-.64-1.27-.64h-1.693v1.325h1.957c-.176.504-.265.742-.449 1.245h-1.508v1.326h1.692c.6 0 .962-.183 1.27-.64.222.631.671 1.884.671 1.884l-5.458.009v-4.91c0-.569-.247-1.09-.653-1.491zm11.094 0c1.632 0 2.628.367 2.628 1.656v.868c0 .66-.265 1.08-.749 1.326l.89 2.542h-1.887l-.67-2.222h-1.066v2.231h-1.817v-4.91c0-.567-.246-1.088-.652-1.49h3.324zm-24.8 0l2.284 2.753v-2.752h1.825v6.4c-.582 0-1.129-.383-1.921-1.334l-1.703-2.04v3.375h-1.825v-4.573c0-.823-.203-1.097-.908-1.828h2.248zm9.34 1.372h-.89v3.658h.89c.476 0 .89-.192.89-.696v-2.267c0-.494-.414-.695-.89-.695zm15.46-.12h-.855v1.674h.855c.556 0 .812-.173.812-.548v-.586c0-.366-.256-.54-.812-.54z"/><path fill="#000036" d="M84.591 17.681L84.556.835 67.773 9.206l-.154.064c.074.275.126.534.19.801-10.156 7.848-18.344 14.31-20.785 25.627-.14.258-.29.51-.424.77l-.314-.024c-4.372-.63-3.398-.946-5.51-.594 0 0 1.46 6.084 3.193 14.883l1.296 24.001 3.162 3.663c.952 8.147 1.473 16.138 1.08 22.595 0 0 7.733 10.218 23.255 17.15 0 0 .012-1.158.012-3.101 2.352 4.02 3.908 6.446 3.908 6.446h15.485s26.69-34.033 26.69-63.35c0-29.32-15.429-40.46-33.93-40.46-.113 0-.224.003-.336.004z"/><path fill="#F5BB0C" d="M122.381 74.734l1.6-26.897c1.475-7.354 2.632-12.245 2.632-12.245-2.066.326-1.023.238-5.637.882l-.119-.06c-1.94-9.273-12.836-19.168-22.103-26.111.08-.34.155-.68.248-1.032l-.153-.065L84.557.835l.13 62.772 16.101-10.441-.006-.08 1.464-.949-2.761-17.158 2.714 5.818 3.487 9.192 10.866-7.045v19.487l-6.818 3.546 1.763.8-1.003 13.51-1.909-11.716-1.744-.982-21.773 9.304c3.981 1.849 14.519 7.741 14.519 7.741-2.986 16.472-4.885 33.508-4.885 33.508 14.528-8.114 23.256-17.15 23.256-17.15-.388-6.338.103-14.174 1.013-22.193l3.41-4.065z"/><path fill="#E0A929" d="M108.585 68.57l-19.37 8.322 11.933 7.326s-5.614 21.618-6.445 33.925c0 0 1.125-16.759 4.885-33.508-.616-.924-14.52-7.742-14.52-7.742l21.775-9.305 1.744.982z"/><path fill="#F5BB0C" d="M52.562 42.843l2.923 5.012-3.125 14.568 31.312 14.469-15.3 7.659 4.39 33.592s-4.502-31.265-8.824-33.925l11.989-6.288-25.97-15.33 3.005-14.967-.4-4.79zM48.67 67.245l.008.029.024.084c.51 1.78 6.869 24.197 5.521 32.628-.177 1.108 8.361 9.878 8.361 9.878-2.47-1.16-6.605-5.099-8.817-7.307l-.31-.31c-.737-.743-1.193-1.224-1.193-1.224 1.776-3.401-3.594-33.778-3.594-33.778zm20.403-6.052l2.695 1.669 1.217.782s-2 .435-2.61 0c-.612-.434-1.302-2.451-1.302-2.451zm30.1 0s-.69 2.017-1.303 2.451c-.61.435-2.61 0-2.61 0l1.217-.782 2.695-1.67zM77.935 5.152s-3.773 3.374-7.852 6.982l-.584.516c-3.807 3.365-7.736 6.802-9.01 7.8l-.016.011.063-.015c1.536-.326 6.02.985 6.267 1.058l.011.003C59.714 23.983 50.627 33 50.627 33 53.321 19.615 77.935 5.152 77.935 5.152z"/><path fill="#E6CD9C" d="M111.497 66.777l5.654-2.68-.599-21.238 1.405 23.25-6.668 3.472zm-2.911 1.793l-14.349 6.164 14.697-4.38z"/><path fill="#E0A929" d="M109.733 65.977l1.765.8 5.653-2.68-.598-21.238v19.572zM118.97 78.8l-11.574 9.753-4.418 24.502s8.247-4.491 14.98-12.063L118.97 78.8z"/><path fill="#001D43" d="M89.956 93.389c-.386 1.908-1.223 3.425-.708 4.844.515 1.418-4.931 1.957-5.204 1.81 0 0-1.561-3.376-.98-4.502.579-1.125.837-2.397.837-2.397s4.574-.734 5.219-1.125c0 0 1.223-.538.836 1.37zm-10.178-7.24l12.434.342v1.296h-.323v1.003l-7.924.637c.022-1.044-2.546-2.458-3.67-3.026l-.24-.12c-.174-.085-.277-.133-.277-.133zm25.834-30.303v1.253l-2 1.22c.155 1.563-.055 3.157-.728 4.586-.156.332-.789 1.78-1.247 1.845l1.84-.259c-2.25 5.195-4.43 4.37-4.43 4.37l1.485-1.992c-2.495.974-7.212 2.037-8.857-1.031 2.602.923 5.55.619 7.786-1.048 1.849-1.378 3.964-4.262 4.13-6.654l-.02.206-13.441 8.195 15.482-10.69z"/></g></svg>