<svg width="178" height="214" xmlns="http://www.w3.org/2000/svg" xmlns:xlink="http://www.w3.org/1999/xlink"><defs><filter x="-25%" y="-17.2%" width="150.1%" height="134.5%" filterUnits="objectBoundingBox" id="a"><feOffset in="SourceAlpha" result="shadowOffsetOuter1"/><feGaussianBlur stdDeviation="10" in="shadowOffsetOuter1" result="shadowBlurOuter1"/><feColorMatrix values="0 0 0 0 0.960784314 0 0 0 0 0.733333333 0 0 0 0 0.0470588235 0 0 0 1 0" in="shadowBlurOuter1"/></filter><path d="M88.718 2C50.888 22.895 38.45 47.742 38.45 47.742L29 46.3c5.2 26.61 5.255 57.67 5.255 57.67s5.626 4.707 5.77 6.362c1.683 19.471.4 28.29.4 28.29C54.49 155.897 88.717 176 88.717 176s34.62-20.102 48.685-37.38c0 0-1.283-8.818.4-28.289.144-1.655 5.77-6.361 5.77-6.361s.054-31.062 5.255-57.671l-9.449 1.443S126.55 22.895 88.72 2" id="b"/></defs><g fill="none" fill-rule="evenodd"><g transform="translate(0 18)"><use fill="#000" filter="url(#a)" xlink:href="#b"/><use fill="#000036" xlink:href="#b"/></g><path d="M88.274 18.685C49.703 39.99 37.02 65.325 37.02 65.325l-9.635-1.472c5.303 27.131 5.358 58.802 5.358 58.802s5.737 4.799 5.883 6.486c1.716 19.854.407 28.844.407 28.844C53.375 175.602 88.274 196.1 88.274 196.1s35.3-20.497 49.64-38.114c0 0-1.308-8.99.409-28.844.146-1.687 5.882-6.486 5.882-6.486s.056-31.67 5.358-58.802l-9.634 1.471s-13.082-25.334-51.655-46.64" fill="#000036"/><path d="M88.274 196.099s35.3-20.497 49.64-38.113c0 0-1.308-8.991.409-28.844.146-1.688 5.882-6.487 5.882-6.487s.056-31.67 5.358-58.802l-9.634 1.472s-13.082-25.336-51.655-46.64" fill="#001D43"/><path d="M90.08 47.879c-.145 0-.29.006-.436.006l-.045-21.98-21.9 10.922-.2.084c.096.358.165.695.249 1.045-13.252 10.24-23.938 18.672-27.121 33.437-.183.337-.379.665-.555 1.006l-.41-.033c-5.703-.823-4.432-1.234-7.187-.775 0 0 1.903 7.938 4.165 19.42l1.692 31.316 4.126 4.78c1.241 10.63 1.921 21.055 1.408 29.481 0 0 10.09 13.333 30.343 22.378 0 0 .017-1.512.015-4.048 3.07 5.246 5.1 8.411 5.1 8.411H99.53s34.823-44.406 34.823-82.66c0-38.253-20.13-52.79-44.272-52.79" fill="#000036"/><path d="M138.951 122.327l2.09-35.095c1.922-9.596 3.433-15.977 3.433-15.977-2.696.425-1.335.31-7.356 1.15-.051-.026-.103-.05-.154-.077-2.532-12.1-16.749-25.011-28.84-34.07.103-.446.201-.887.324-1.347l-.2-.084L89.6 25.904l.17 81.906 21.01-13.625-.01-.104 1.911-1.239-3.603-22.387 3.541 7.591 4.551 11.995 14.177-9.194v25.427l-8.897 4.627 2.302 1.044-1.31 17.628-2.489-15.288-2.277-1.281-28.41 12.14c5.196 2.412 18.945 10.101 18.945 10.101-3.897 21.491-6.374 43.72-6.374 43.72 18.957-10.587 30.344-22.377 30.344-22.377-.505-8.27.134-18.494 1.323-28.958l4.448-5.303z" fill="#F5BB0C"/><path d="M120.952 114.285l-25.276 10.858 15.57 9.56s-7.325 28.206-8.41 44.262c0 0 1.468-21.864 6.375-43.72-.805-1.205-18.945-10.1-18.945-10.1l28.41-12.141 2.276 1.28z" fill="#E0A929"/><path d="M88.445 125.143l-19.964 9.993 5.727 43.83s-5.871-40.792-11.512-44.264l15.643-8.205-33.886-20.002 3.922-19.528-.523-6.25 3.815 6.539-4.078 19.009 40.856 18.878zM42.774 112.554s7.008 39.635 4.69 44.072c0 0 8.906 9.395 13.465 11.537 0 0-11.14-11.443-10.909-12.887 1.831-11.461-7.246-42.722-7.246-42.722" fill="#F5BB0C"/><path fill="#E6CD9C" d="M124.75 111.945l7.378-3.497-.782-27.71 1.834 30.335-8.701 4.53z"/><path fill="#E0A929" d="M122.45 110.901l2.3 1.044 7.378-3.498-.782-27.71v25.537z"/><path d="M80.959 31.538s-32.115 18.87-35.631 36.334c0 0 11.856-11.766 21.12-14.995 0 0-7.95-2.363-8.788-1.061-.837 1.302 23.299-20.278 23.299-20.278" fill="#F5BB0C"/><path d="M99.587 137.667l-16.224-.447s5.5 2.534 5.464 4.277l10.34-.83v-1.309h.42v-1.691zM88.743 146.348s5.968-.956 6.809-1.468c0 0 1.597-.702 1.092 1.787-.503 2.49-1.596 4.47-.924 6.321s-6.435 2.553-6.79 2.362c0 0-2.036-4.405-1.28-5.873s1.093-3.129 1.093-3.129M114.436 100.67c-.218 3.122-2.979 6.884-5.39 8.682-2.919 2.175-6.764 2.571-10.158 1.367 2.146 4.004 8.3 2.617 11.556 1.346l-1.938 2.6s2.844 1.074 5.78-5.702c0 0-2.394.335-2.4.337.597-.085 1.422-1.974 1.627-2.407.911-1.938 1.171-4.107.923-6.223" fill="#001D43"/><path fill="#001D43" d="M96.87 111.631l20.202-13.949v1.634"/><path d="M105.152 106.835l3.517-2.178s-.9 2.632-1.698 3.199c-.798.567-3.407 0-3.407 0l1.588-1.02zM72.912 106.835l-3.516-2.178s.9 2.632 1.698 3.199c.798.567 3.407 0 3.407 0l-1.589-1.02z" fill="#F5BB0C"/><path fill="#E6CD9C" d="M120.739 114.53l-18.047 8.216 18.485-5.838z"/></g></svg>