<svg width="195" height="161" xmlns="http://www.w3.org/2000/svg"><path d="M182 0c7.127 0 13 5.897 13 13.054v108.784c0 7.157-5.873 13.054-13 13.054h-65v17.405h6.5c2.393 0 4.333 1.948 4.333 4.352 0 2.403-1.94 4.351-4.333 4.351h-52c-2.393 0-4.333-1.948-4.333-4.351 0-2.404 1.94-4.352 4.333-4.352H78v-17.405H13c-7.127 0-13-5.897-13-13.054V13.054C0 5.897 5.873 0 13 0h169zm-.341 9H12.34C9.861 9 8 10.874 8 13.37v109.26c0 2.496 1.861 4.37 4.341 4.37H181.66c2.48 0 4.341-1.874 4.341-4.37V13.37c0-2.496-1.861-4.37-4.341-4.37zM108 134H86v18h22v-18z" fill="silver" fill-rule="evenodd"/></svg>