<svg xmlns="http://www.w3.org/2000/svg" xmlns:xlink="http://www.w3.org/1999/xlink" width="107" height="300"><defs><path id="a" d="M0 0h107v300H0z"/><path id="c" d="M.397.038h107.28v298.861H.397z"/></defs><g transform="translate(.093)" fill="none" fill-rule="evenodd" opacity=".1"><mask id="b" fill="#fff"><use xlink:href="#a"/></mask><g mask="url(#b)"><path fill="#FEFEFE" d="M103.873 225.917l19.957-1.623v-2.557h.81v-3.308l-31.313-.873s10.617 4.953 10.546 8.36m13.031 6.866c-1.63.99-13.199 2.84-13.199 2.84s-.652 3.211-2.118 6.05c-1.467 2.84 2.48 11.358 2.48 11.358.688.372 14.466-.986 13.163-4.566-1.304-3.582.815-7.409 1.792-12.225.978-4.815-2.118-3.457-2.118-3.457m-47.382-72.568c1.566 1.1 6.687 0 6.687 0l-3.116-1.979-6.904-4.221s1.768 5.1 3.333 6.2"/><g transform="translate(104.6 .174)"><mask id="d" fill="#fff"><use xlink:href="#c"/></mask><path fill="#FEFEFE" d="M29.158 275.644c-1.85 14.01-2.878 23.22-2.882 23.252.465-6.885 1.52-14.914 2.882-23.252m64.139-184.81c-.1-.05-.2-.099-.301-.151-4.95-23.626-32.745-48.835-56.384-66.523.203-.87.395-1.731.636-2.632l-.391-.162L.397.038l.33 159.926 41.075-26.604-.018-.202 3.737-2.42-7.044-43.713 6.923 14.824 8.896 23.42 27.717-17.952v49.647l-17.394 9.034h.001l4.5 2.039-.532 7.145-2.029 27.274-4.12-25.263.14-.042-.886-4.544-4.451-2.501-10.4 4.438L1.7 193.81c.002.002 2.641 1.294 6.5 3.215 12.103 6.215 30.537 16.509 30.537 16.509l-.002.004c-9.584 42.643-12.456 85.302-12.46 85.361a298.613 298.613 0 0021.114-12.965v.007S68.42 274.5 85.595 255.21l.003-.003v-.003l2.582-56.51.003-.031 8.698-10.354 4.085-68.526c3.759-18.736 6.711-31.196 6.711-31.196-5.27.83-2.61.605-14.38 2.246" mask="url(#d)"/></g><path fill="#FEFEFE" d="M103.348 193.959l-79.878-36.87 7.973-37.125-7.46-12.771 1.022 12.207-7.666 38.139 66.25 39.066-30.585 16.022c11.03 6.781 22.51 86.447 22.51 86.447l-11.198-85.6 39.03-19.515zM14 169.481s13.698 77.47 9.167 86.143c0 0 17.408 18.362 26.322 22.548 0 0-21.776-22.366-21.326-25.188C31.745 230.584 14 169.48 14 169.48m46.33-116.7s-7.517-3.773-10.157-2.596c5.123-5.02 36.474-39.14 36.474-39.14s-60.08 47.06-63.462 71.066c0 0 18.976-23.013 37.145-29.33"/></g></g></svg>