<svg xmlns="http://www.w3.org/2000/svg" width="100" height="65"><path d="M3.132.437c1.01 0 2.202.084 3.579.06C8.088.476 9.636.538 11.357.49c-.023.442-.035.965-.035 1.57-.02.458-.03 1.002-.033 1.631v3.043a17.382 17.382 0 00-1.205-.035c-.413 0-.941.006-1.583.018-.643.012-1.4.03-2.272.052v1.29c0 .42-.006.931-.017 1.536l-.005.316v.259c0 .247.008.484.022.945h1.497c.792 0 1.052-.023 2.383-.07v2.247c0 .536-.095 2.115-.095 2.87 0 .756.011-.073.034.811a14.662 14.662 0 00-1.1-.035h-.836c-.574 0-.977.012-1.78.035.01.476.02 1.111.028 1.772l.009.796.015 1.46c.011 1.164.04 4.773.086 6.075L.275 28.393v-.694l-.001-.152-.001-.529c-.005-2.385-.015-7.21-.032-9.052-.023-2.139-.052-4.68-.086-7.622A1322 1322 0 000 .437c.918.023 1.962.023 3.132 0zm96.397.873v4.918c0 .739.021.798.063 1.686-.594.023-1.178.034-1.752.034-.489.023-1.004.034-1.545.034-.542 0-1.025.012-1.45.034-.022.455-.027.87-.017 1.245.01.307.015 1.092.016 1.529v1.152c.128 0 .5.006 1.116.017.616.012 1.561-.005 2.836-.051v3.463c0 .693.01.708.032 1.55h-1.116c-.36 0-.775-.006-1.242-.018-.468-.01-.967-.017-1.498-.017v.819c0 .545.032 2.027.095 2.937.34.022.744.045 1.212.067l1.402.086c.552.034 1.168.063 1.848.085-.021.387-.032.865-.032 1.433a41.444 41.444 0 00-.032 1.774v3.432c-.935-.023-9.016-.687-10.355-.71-.022-1.978.243-4.667.222-7.123a9349.27 9349.27 0 00-.08-7.47c-.032-2.867-.069-6.499-.111-9.956.29 0 2.318-.222 4.54-.45l.61-.063c2.143-.218 4.336-.426 5.238-.437zm-10.42 2.621c-.022.478-.045 1.296-.066 1.887-.023.524-.04 1.156-.05 1.895l-.006.526v.306c.003.304.01.625.022 1.146h-.93c-.312 0-.683-.005-1.115-.017a58.723 58.723 0 00-1.48-.017v3.209c0 1.184.005 3.074.016 4.542s.028 1.488.05 3.263c.022 1.775.044 3.755.067 5.94a28.051 28.051 0 00-1.497-.034c-.51 0-1.137.005-1.88.017-.742.011-1.612.028-2.61.051.022-1.41.033-3.038.033-4.882V20.776c-.003-.847-.008-1.422-.017-3.078a2265.78 2265.78 0 00-.05-7.475l-3.558.033c.021-.318.033-.75.033-1.297 0-.455-.006-1.058-.017-1.809-.011-.751-.028-1.684-.05-2.8 0 0 10.932-.373 13.105-.419zM18.75 2.184c1.505 0 2.742.275 3.713.825.97.55 1.734 1.343 2.29 2.378.556 1.036.937 2.297 1.145 3.786.207 1.489.31 3.182.31 5.08-.021 2.114-.185 3.904-.49 5.371-.306 1.467-.758 2.653-1.357 3.56-.6.906-1.364 1.564-2.29 1.973-.928.41-2.024.615-3.288.615-1.352 0-2.498-.249-3.435-.745-.938-.495-1.701-1.229-2.29-2.2-.589-.97-1.02-2.168-1.292-3.591-.273-1.424-.409-3.074-.409-4.95 0-1.79.109-3.425.327-4.903.218-1.477.605-2.75 1.161-3.818s1.309-1.898 2.258-2.491c.949-.593 2.164-.89 3.647-.89zm13.037.028c3.072 0 4.496.183 5.92 1.59 1.427 1.409 2.727 3.329 2.727 6.1 0 1.462-.153 2.68-.65 3.656a6.574 6.574 0 01-2.04 2.393c.134.444.465 1.47.995 3.076.53 1.607 1.304 3.531 2.321 6.346-.464.021-1.006.055-1.625.099-.53.044-1.182.094-1.956.15-.773.055-1.657.105-2.652.15l-.563-2.262c-.177-.731-.398-1.325-.663-2.355s-.575-2.189-.928-3.475c-.022.023-.066.034-.133.034h-.331l.132 7.148h-3.68c-.75 0-1.569.01-2.452.033.021-1.773.044-3.823.066-6.15.022-1.995.038-4.39.05-7.181.01-2.793.119-5.75.119-9.275.432-.077 1.352-.101 2.318-.105h.581c1.063.005 2.074.028 2.444.028zm30.879-.028c.226.012 1.53.02 2.822.02h.514c.93 0 1.777-.004 2.11-.013l.002.493v1.283c-.003 2.535-.02 7.171-.024 11.541v3.085c.003 2.971.017 5.503.052 6.696-.185.024-1.183.135-2.229.246l-.483.05a78.57 78.57 0 01-1.94.187 915.96 915.96 0 01-1.135-3.264c-.38-1.042-.824-1.89-1.337-3.308l-1.703-4.709c.044 1.18.1 2.618.167 4.318.067 1.7.177 3.763.334 6.188-.446 0-.958-.01-1.537-.034a62.531 62.531 0 00-1.788-.05c-.701-.011-1.476-.018-2.322-.018.02-1.51.031-3.248.034-5.217v-1.582a1114.39 1114.39 0 00-.034-6.036c-.015-1.806.01-3.55.014-5.532v-1.22c-.002-.628-.006-1.282-.015-1.97.49-.023 4.471-.83 5.295-.877.29.884.73 2 1.13 3.156.335.998.747 2.21 1.237 3.638a443.38 443.38 0 001.704 4.862 383.192 383.192 0 00-.3-5.253c-.134-2.12-.323-3.71-.568-6.68zm12.3.874c0 2.27.012 3.48.034 6.094.021 2.226.038 4.772.05 7.639.01 2.868.037 5.861.081 8.98h-5.984v-6.95c0-2.156-.01-4.68-.033-7.57-.022-2.89-.054-4.787-.098-8.159h3.37c.734 0 1.595-.011 2.58-.034zm-27.58-.393l.611.05c2.239.184 4.379.378 5.294.513-.023.483-.044 1.607-.055 2.354l-.005.618v.814c.002.774.009 1.632.022 2.184h-.94c-.313 0-.225-.006-.66-.018-.437-.01-.935-.017-1.494-.017l.001 3.868c.002.734.007 1.158.016 2.345.011 1.483.028 1.693.05 3.487.023 1.793.045 3.793.068 6a28.523 28.523 0 00-1.51-.034c-.515 0-1.147.005-1.896.017-.75.011-1.627.029-2.634.052.02-1.267.03-2.706.033-4.319v-1.293c-.001-1.101-.006-1.739-.016-3.617-.012-2.23-.028-4.747-.05-7.553l-3.127.035c.021-.322.033-.759.033-1.31 0-.46-.006-1.07-.017-1.829-.011-.758-.028-1.701-.05-2.828 0 0 3.159.225 6.325.481zM18.782 6.811a.614.614 0 00-.524.275c-.13.183-.229.545-.294 1.084-.065.54-.11 1.294-.13 2.265a174.1 174.1 0 00-.033 3.786c0 1.575.021 2.83.065 3.77.044.937.103 1.655.18 2.15.076.497.18.821.31.971a.621.621 0 00.491.227c.153 0 .289-.075.41-.227.119-.15.217-.474.293-.97.077-.496.132-1.23.164-2.2.033-.971.05-2.287.05-3.948 0-1.574-.017-2.836-.05-3.785-.032-.95-.087-1.672-.164-2.169-.076-.496-.18-.824-.31-.986-.131-.162-.284-.243-.458-.243zm13.326.521c0 .8.005 1.575.017 2.325.01.75.027 1.425.05 2.025.021.7.033 1.37.033 2.009.64-.02 1.143-.26 1.508-.72.365-.46.547-1.23.547-2.31 0-1.059-.172-1.894-.514-2.504-.343-.61-.89-.885-1.64-.825z" fill="#FFF" fill-rule="evenodd"/></svg>