<svg version="1.0" xmlns="http://www.w3.org/2000/svg" width="374" height="355"><path d="M186.4 353.2c-8.9-1.8-25.3-7.3-53.3-17.8C89 318.7 4.6 284 2 281.5.7 280.1.5 265.1.5 144.2.5-2 .2 5.9 5.7 2.2 8.3.6 18.6.5 187 .5s178.7.1 181.3 1.7c1.4 1 3.2 2.8 3.9 4 1.9 3.3 2.4 270.1.5 273.8-2.7 5.5-86.9 45.5-129.4 61.5-28.7 10.9-44.8 14.2-56.9 11.7zm59.9-14.8c16.6-6.3 46-19.2 72.9-32 25.4-12 51.8-25.6 51.8-26.5 0-.4-5.5 2.2-12.2 5.8-29.5 15.7-86.2 41.7-112.8 51.8-6.9 2.6-12.7 4.9-12.9 5.1-1.1 1 1.8.1 13.2-4.2z" fill="#1e130e"/></svg>