<svg width="170" height="39" xmlns="http://www.w3.org/2000/svg"><g fill="none" fill-rule="evenodd"><path d="M85.659.177h30.346s-2.942 2.232-2.942 4.278v2.869s11.042.137 51.939-3.087v19.717l4.542 14.563H0l4.543-14.563V4.237C45.44 7.46 58.246 7.324 58.246 7.324v-2.87c0-2.045-2.941-4.277-2.941-4.277H85.65" fill="#000"/><path d="M110.658 2.844a5.259 5.259 0 00-.263 1.611V9.96l2.636.033h.489c2.37-.009 13.647-.196 44.892-2.569a3.056 3.056 0 00-.81 1.831c-30.23 2.283-41.45 2.49-44.003 2.503H113.002l-2.628-.033-1.743-.022V4.608H85.654L85.65 3.56H61.54v6.878s-.679.03-2.29.034h-.65c-5.623-.015-20.173-.36-50.8-2.709v16.819l-.069.24-.105.361-2.908 8.902h158.935l-2.91-8.901-.104-.363-.069-.24V12.587c.028 0 .054.008.082.008.623 0 1.2-.187 1.683-.505V24.33l.104.363 3.56 11.155H85.655l-.001-1.13H4.01l3.228-10.388V7.121c33.494 2.602 47.379 2.852 50.365 2.87l.174.002h.431l.071-.001 2.635-.033V4.455c0-.557-.097-1.097-.262-1.611zm-92.865 9.964c2.803.273 4.74 1.123 6.612 2.747a230.655 230.655 0 00-3.46 3.06c-.869-1.265-2.032-1.953-3.15-2.04-1.23-.094-2.711.579-2.71 1.98l.003 6.196c0 1.402 1.484 2.224 2.716 2.25 1.3.027 2.236-.504 3.033-1.693a223.69 223.69 0 003.586 3.475c-1.87 1.51-4.106 2.112-6.616 2.112-2.967 0-7.418-1.23-7.418-5.706V17.78c0-4.476 4.442-5.262 7.404-4.973zm123.418 2.99c-.579.577-1.037 1.032-1.475 1.464l-.523.512c-.438.428-.896.872-1.474 1.43-.866-1.102-2.028-1.588-3.146-1.524-1.232.072-2.716.861-2.72 2.117-.003 2.275-.006 3.412-.01 5.686-.003 1.256 1.48 1.942 2.712 1.923.662-.01 1.34-.147 1.872-.518.336-.235.334-.483.344-1.056.013-.71.025-1.19.026-1.773l-1.437.043a862.896 862.896 0 00-1.158-3.125c2.783-.12 4.175-.184 6.958-.32l-.016 10.213s-.957-.687-2.121-.683c-1.142.004-1.896.683-4.474.684-3.059 0-7.416-1.075-7.409-4.906.006-2.537.009-3.805.013-6.342.007-3.83 4.368-5.184 7.426-5.407 2.805-.204 4.744.264 6.612 1.582zm-65.588.844c2.559.035 3.839.047 6.398.058v2.395l.001 3.21v.562l.001 3.626v1.418l.876.001h.392l3.093.001c1.552 0 2.488-.4 3.287-1.404l.95 2.274.296.708c.154.368.32.765.51 1.224H77.324v-.925l-.001-.44v-1.238l-.002-1.704v-1.084-.54l-.002-1.096V21.93l-.001-.472v-.996l-.001-.528c0-1.245-.641-2.395-1.693-3.293zm31.55-.238l-.641 1.605-.156.39c-.466 1.164-.907 2.25-.945 2.256-.191.033-1.734-1.389-3.287-1.36-1.754.032-2.631.047-4.385.07v.414l-.002.717V21.747l-.001.54c2.027-.02 3.041-.032 5.069-.061-.458 1.123-.687 1.653-1.168 2.772l-1.6.014-.705.006-1.6.011v1.462l-.002.676v.785c1.753-.006 2.63-.01 4.383-.018 1.552-.008 3.24-1.453 3.29-1.445.104.017.51.997.902 2.006l.167.431c.355.927.658 1.765.658 1.765-4.708.008-9.417.017-14.127.024l.001-1.363v-.32l.001-1.503.001-1.663v-1.079l.001-.544.001-1.118v-.415l.001-.864v-1.403l.001-.504c0-1.244-.638-2.381-1.69-3.254 5.28-.057 10.555-.15 15.833-.28zm-47.264-.145c1.096.039 1.957.068 2.785.094l.824.025c.828.025 1.69.05 2.786.078l.016 11.404c1.743.01 2.616.015 4.36.022 1.552.007 2.487-.395 3.285-1.397l1.762 4.23-14.105-.005-.018-11.042c-.002-1.275-.643-2.463-1.695-3.409zm65.44-1.124l-.018.019-.051.058c-.654.65-1.297 1.42-1.297 2.916l-.025 12.545c-1.506.001-2.919-.933-4.97-3.175a411.741 411.741 0 00-4.031-4.358l-.364-.388-.015 7.928h-1.373l-1.573.001h-1.778l.016-9.88.002-.728-.018-4.312 3.495-.066a469.33 469.33 0 015.902 6.288l.012-6.558c1.145-.058 1.943-.086 2.813-.123 1.07-.05 1.934-.094 3.273-.167zm-78.226.127c2.821.153 4.232.223 7.055.348a1535.563 1535.563 0 005.847 15.072h-1.367l-1.565-.001h-.199l-1.08-.001h-.49c-.459-1.177-.687-1.767-1.147-2.95l-4.176-.041a.674.674 0 00-.639.43 813.37 813.37 0 00-.975 2.556h-.945l-.825-.001h-.39l-1.176-.002h-1.367a990.637 990.637 0 014.405-11.693c.477-1.232.132-2.623-.852-3.6l-.04-.042-.074-.075zm-21.17-1.467c2.553.215 3.83.317 6.385.509l.01 6.216c1.871.087 2.807.13 4.678.21l-.011-6.089c1.889.129 2.833.191 4.723.308l.031 15.72h-1.778l-.606-.001h-.301l-.62-.001h-.326l-.706-.001h-.387l-.013-6.777c-1.872-.055-2.807-.084-4.678-.144l.012 6.916-4.701-.006-.01-5.835-.001-1.156-.009-5.835c-.002-1.482-.643-2.886-1.693-4.034zM159.1 12.336c-.19.623-.445 1.444-.702 2.261l-.14.445a963.739 963.739 0 01-.877 2.776l-.013.04c-.155.026-1.73-1.67-3.28-1.546-1.751.141-2.626.209-4.377.34v.599l-.002.78v1.628l-.001.598 2.15-.122.762-.044 2.15-.129c-.183.573-.33 1.024-.47 1.45l-.21.633c-.142.425-.293.872-.485 1.438-1.56.063-2.34.094-3.9.154l-.001.456v.799l-.002 1.094v.8l-.001.456 4.38-.088c1.313-.027 2.757-1.357 3.17-1.766l.086-.086.017-.018.013-.014c.09.013.5 1.268.898 2.558l.149.482c.366 1.2.686 2.296.686 2.296-4.71.017-9.417.032-14.127.046l.008-5.926.002-1.174.008-5.926c.002-1.505-.635-2.84-1.682-3.81 5.268-.456 10.529-.95 15.791-1.48zm-107.263 9.3c-.065 0-.376.87-.705 1.794l-.123.348c-.124.347-.246.688-.353.98l.918.018.538.01.918.017a97.634 97.634 0 01-.314-.815l-.133-.352c-.378-1-.746-2-.746-2zM68.406 6.892v4.355c0 .507.416.79.895.79.478 0 .895-.283.895-.79V6.891h1.833v4.512c0 1.571-1.54 2.013-2.728 2.013-1.187 0-2.72-.442-2.72-2.013V8.39c0-.57-.248-1.093-.656-1.498h2.481zm32.377 0c1.64 0 2.64.368 2.64 1.663v.873c0 .662-.265 1.085-.753 1.332l.895 2.555h-1.896l-.673-2.232h-1.072v2.241h-1.825V8.39c0-.57-.248-1.093-.656-1.498h3.34zm-24.916 0l2.294 2.766V6.891h1.834v6.432c-.585 0-1.134-.386-1.931-1.342l-1.71-2.048v3.39H74.52V8.73c0-.827-.203-1.103-.912-1.839h2.26zm9.384 0c1.355 0 2.72.35 2.72 1.93v2.582c0 1.572-1.365 1.92-2.72 1.92h-2.72V8.389c0-.57-.248-1.093-.656-1.497h3.376zm4.386 0l6.14.01-.674 1.892c-.31-.46-.674-.643-1.276-.643h-1.7v1.333h1.966c-.177.504-.266.744-.452 1.25h-1.515v1.331h1.701c.602 0 .966-.183 1.276-.642l.238.673.105.296.33.923-5.484.009V8.389c0-.57-.248-1.093-.655-1.497zm-4.386 1.38h-.896v3.674h.896c.478 0 .894-.193.894-.699V8.97c0-.497-.416-.699-.894-.699zm75.402-.84c.373 0 .721.093 1.044.281.324.187.58.442.767.765.187.323.281.67.281 1.044 0 .375-.093.723-.28 1.045a2.06 2.06 0 01-.765.762c-.323.186-.673.28-1.047.28-.377 0-.728-.093-1.05-.278a2.04 2.04 0 01-.766-.763 2.049 2.049 0 01-.28-1.046c0-.375.093-.724.282-1.047a2.08 2.08 0 01.765-.764 2.07 2.07 0 011.049-.28zm0 .346c-.48 0-.892.17-1.233.512a1.68 1.68 0 00-.51 1.232c0 .482.17.892.51 1.232.34.339.75.509 1.233.509.48 0 .89-.171 1.23-.511.34-.34.51-.75.51-1.23 0-.481-.17-.891-.51-1.232a1.676 1.676 0 00-1.23-.512zm-.059.618c.276 0 .47.022.584.065a.564.564 0 01.273.218.588.588 0 01-.078.76.72.72 0 01-.463.2.677.677 0 01.24.172c.075.08.17.213.284.396l.272.437h-.443l-.197-.351c-.143-.255-.256-.418-.338-.493a.48.48 0 00-.334-.112h-.215v.956h-.363V8.395h.778zm-59.81-.244h-.86v1.68h.86c.557 0 .815-.174.815-.55v-.589c0-.368-.258-.541-.816-.541zm59.81.55h-.415v.675h.443c.188 0 .327-.027.414-.08.086-.056.13-.142.13-.26 0-.124-.043-.212-.127-.26-.084-.05-.232-.076-.445-.076z" fill="#FFF"/></g></svg>