<svg xmlns="http://www.w3.org/2000/svg" width="80" height="80" viewBox="0 0 80 80">
    <g fill="none" fill-rule="evenodd">
        <g>
            <g>
                <g>
                    <path fill="#000036" d="M27.366 0C10.031 9.575 4.33 20.962 4.33 20.962L0 20.3c2.383 12.194 2.408 26.428 2.408 26.428s2.578 2.157 2.644 2.916c.772 8.922.183 12.963.183 12.963 6.446 7.918 22.131 17.13 22.131 17.13s15.865-9.212 22.31-17.13c0 0-.588-4.04.184-12.963.066-.759 2.644-2.916 2.644-2.916s.025-14.234 2.408-26.428l-4.33.662S44.702 9.575 27.366 0" transform="translate(-10 -8) translate(10 8) translate(12.308 .308)"/>
                    <path fill="#001D43" d="M27.366 79.737s15.865-9.212 22.31-17.13c0 0-.588-4.04.184-12.963.066-.759 2.644-2.916 2.644-2.916s.025-14.234 2.408-26.428l-4.33.662S44.702 9.575 27.366 0" transform="translate(-10 -8) translate(10 8) translate(12.308 .308)"/>
                    <path fill="#000036" d="M28.178 13.12c-.066 0-.13.004-.196.004l-.02-9.88-9.843 4.91-.09.038c.043.16.074.312.112.47-5.956 4.601-10.759 8.391-12.19 15.027-.081.152-.17.299-.249.452l-.184-.014c-2.563-.37-1.992-.555-3.23-.349 0 0 .855 3.568 1.872 8.728l.76 14.075 1.854 2.148c.558 4.778.864 9.463.633 13.25 0 0 4.535 5.992 13.638 10.058 0 0 .007-.68.007-1.82 1.379 2.358 2.292 3.78 2.292 3.78h9.08s15.652-19.957 15.652-37.15c0-17.193-9.048-23.726-19.898-23.726" transform="translate(-10 -8) translate(10 8) translate(12.308 .308)"/>
                    <path fill="#F5BB0C" d="M50.142 46.58l.94-15.772c.864-4.313 1.542-7.181 1.542-7.181-1.211.191-.6.14-3.305.517l-.07-.034c-1.138-5.44-7.527-11.242-12.962-15.313.047-.2.09-.398.146-.605l-.09-.038-8.381-4.91.076 36.812 9.442-6.123-.004-.047.86-.557-1.62-10.062 1.591 3.412 2.046 5.391 6.371-4.132v11.428l-3.998 2.08 1.034.469-.588 7.922-1.12-6.87-1.022-.576-12.769 5.456c2.335 1.084 8.515 4.54 8.515 4.54-1.752 9.659-2.865 19.65-2.865 19.65 8.52-4.76 13.637-10.058 13.637-10.058-.226-3.717.06-8.312.595-13.015l2-2.383z" transform="translate(-10 -8) translate(10 8) translate(12.308 .308)"/>
                    <path fill="#E0A929" d="M42.053 42.966l-11.36 4.88 6.997 4.297S34.4 64.82 33.91 72.036c0 0 .66-9.827 2.866-19.649-.362-.542-8.515-4.54-8.515-4.54l12.768-5.456 1.024.575z" transform="translate(-10 -8) translate(10 8) translate(12.308 .308)"/>
                    <path fill="#F5BB0C" d="M27.443 47.846l-8.973 4.492 2.574 19.698s-2.639-18.333-5.174-19.893l7.03-3.688-15.229-8.99 1.763-8.776-.235-2.81 1.714 2.94-1.832 8.543 18.362 8.484zM6.917 42.189s3.15 17.813 2.107 19.807c0 0 4.003 4.223 6.052 5.185 0 0-5.007-5.143-4.903-5.792.823-5.15-3.256-19.2-3.256-19.2" transform="translate(-10 -8) translate(10 8) translate(12.308 .308)"/>
                    <path fill="#E6CD9C" d="M43.76 41.915L47.076 40.343 46.724 27.889 47.548 41.523 43.638 43.559z" transform="translate(-10 -8) translate(10 8) translate(12.308 .308)"/>
                    <path fill="#E0A929" d="M42.726 41.446L43.76 41.915 47.076 40.343 46.724 27.889 46.724 39.366z" transform="translate(-10 -8) translate(10 8) translate(12.308 .308)"/>
                    <path fill="#F5BB0C" d="M24.078 5.777S9.645 14.258 8.064 22.107c0 0 5.329-5.288 9.493-6.74 0 0-3.573-1.062-3.95-.476-.376.585 10.471-9.114 10.471-9.114" transform="translate(-10 -8) translate(10 8) translate(12.308 .308)"/>
                    <path fill="#001D43" d="M32.45 53.475l-7.291-.2s2.472 1.138 2.455 1.921l4.648-.372v-.589h.188v-.76zM27.577 57.377s2.682-.43 3.06-.66c0 0 .718-.315.491.803-.226 1.12-.718 2.009-.415 2.841.302.832-2.893 1.147-3.052 1.062 0 0-.915-1.98-.575-2.64.34-.66.49-1.406.49-1.406M39.124 36.847c-.098 1.403-1.339 3.094-2.422 3.902-1.312.978-3.04 1.156-4.566.615.965 1.8 3.73 1.176 5.194.605l-.87 1.168s1.277.483 2.597-2.563l-1.08.152c.27-.038.64-.887.732-1.082.41-.87.527-1.846.415-2.797" transform="translate(-10 -8) translate(10 8) translate(12.308 .308)"/>
                    <path fill="#001D43" d="M31.23 41.774L40.309 35.505 40.309 36.239" transform="translate(-10 -8) translate(10 8) translate(12.308 .308)"/>
                    <path fill="#F5BB0C" d="M34.952 39.618l1.58-.979s-.404 1.183-.763 1.438c-.359.255-1.531 0-1.531 0l.714-.459zM20.462 39.618l-1.58-.979s.404 1.183.763 1.438c.358.255 1.531 0 1.531 0l-.714-.459z" transform="translate(-10 -8) translate(10 8) translate(12.308 .308)"/>
                    <path fill="#E6CD9C" d="M41.957 43.077L33.846 46.769 42.154 44.145z" transform="translate(-10 -8) translate(10 8) translate(12.308 .308)"/>
                </g>
            </g>
        </g>
    </g>
</svg>
