<svg xmlns="http://www.w3.org/2000/svg" xmlns:xlink="http://www.w3.org/1999/xlink" width="201" height="663" viewBox="0 0 201 663">
    <defs>
        <path id="71ob2of3wa" d="M0.023 0.458H200.023V662.458H0.023z"/>
        <path id="3sq4bybb2c" d="M0.872 0.083L236.665 0.083 236.665 659.499 0.872 659.499z"/>
    </defs>
    <g fill="none" fill-rule="evenodd" opacity=".05">
        <g>
            <g transform="translate(-730 -1) translate(730 1)">
                <mask id="g1vasfjr3b" fill="#fff">
                    <use xlink:href="#71ob2of3wa"/>
                </mask>
                <g mask="url(#g1vasfjr3b)">
                    <g>
                        <path fill="#FEFEFE" d="M198.28 498.542l43.974-3.493v-5.505h1.787v-7.123l-69-1.879s23.395 10.663 23.238 18M226.896 513.93c-3.63 2.173-29.407 6.24-29.407 6.24s-1.453 7.054-4.72 13.29c-3.268 6.238 5.528 24.952 5.528 24.952 1.532.816 32.23-2.167 29.325-10.031-2.904-7.87 1.815-16.277 3.994-26.857 2.178-10.577-4.72-7.594-4.72-7.594M122.36 353.446c3.436 2.466 14.681 0 14.681 0l-6.843-4.437-15.157-9.467s3.881 11.438 7.318 13.904" transform="translate(-.041 -.542)"/>
                        <g transform="translate(-.041 -.542) translate(200.041 .542)">
                            <mask id="qlg83jnrgd" fill="#fff">
                                <use xlink:href="#3sq4bybb2c"/>
                            </mask>
                            <path fill="#FEFEFE" d="M64.086 608.19c-4.064 30.91-6.325 51.233-6.335 51.303 1.023-15.192 3.342-32.907 6.335-51.304M205.06 200.42c-.218-.109-.44-.218-.661-.334-10.88-52.129-71.971-107.75-123.927-146.778.446-1.92.868-3.82 1.396-5.806l-.859-.36L.872.084l.726 352.866 90.28-58.699-.04-.447 8.214-5.341-15.483-96.448 15.216 32.71 19.553 51.671 60.92-39.608V346.33l-38.23 19.933h.003-.003l9.892 4.498-1.169 15.765-4.459 60.178-9.054-55.741.306-.092-1.948-10.027-9.783-5.518-22.86 9.794-99.215 42.508h.003c.003.003 5.803 2.855 14.284 7.094 26.602 13.713 67.117 36.425 67.117 36.425 0 .003-.003.006-.003.01-21.065 94.089-27.378 188.211-27.388 188.342 16.932-9.48 32.436-19.179 46.408-28.607v.016s46.225-25.244 83.972-67.805l.006-.006v-.006l5.676-124.686c.003-.025.006-.046.006-.067l19.117-22.846 8.978-151.197c8.263-41.34 14.752-68.833 14.752-68.833-11.586 1.832-5.737 1.336-31.607 4.958" mask="url(#qlg83jnrgd)"/>
                        </g>
                        <path fill="#FEFEFE" d="M196.041 427.816L20.513 346.537l17.52-81.842-16.391-28.153 2.246 26.91L7.04 347.528l145.583 86.121-67.21 35.322c24.236 14.948 49.465 190.571 49.465 190.571l-24.607-188.704 85.77-43.022zM.041 373.542S30.147 544.601 20.19 563.753c0 0 38.26 40.545 57.851 49.79 0 0-47.86-49.388-46.87-55.62C39.042 508.462.04 373.544.04 373.544M101.983 116.747s-16.58-8.336-22.405-5.736c11.3-11.091 80.463-86.469 80.463-86.469s-132.54 103.968-140 157c0 0 41.862-50.84 81.942-64.795" transform="translate(-.041 -.542)"/>
                    </g>
                </g>
            </g>
        </g>
    </g>
</svg>
