<svg xmlns="http://www.w3.org/2000/svg" width="16" height="14" viewBox="0 0 16 14">
    <g fill="none" fill-rule="evenodd">
        <g fill="#FFF">
            <g>
                <g>
                    <path d="M19 11.001H7.14l3.63-4.36c.353-.425.295-1.056-.13-1.41-.425-.353-1.057-.295-1.41.13l-5 6c-.034.048-.064.098-.09.15 0 .05 0 .08-.07.13-.045.115-.07.237-.07.36 0 .124.025.246.07.36 0 .05 0 .08.07.13.026.052.056.103.09.15l5 6c.19.229.473.36.77.36.234 0 .46-.08.64-.23.205-.17.333-.413.358-.678.024-.264-.058-.528-.228-.732l-3.63-4.36H19c.552 0 1-.447 1-1 0-.552-.448-1-1-1z" transform="translate(-897 -365) translate(885 352) translate(8 8) rotate(-180 12 12)"/>
                </g>
            </g>
        </g>
    </g>
</svg>
