<?xml version="1.0" encoding="UTF-8"?>
<svg width="178px" height="214px" viewBox="0 0 178 214" version="1.1" xmlns="http://www.w3.org/2000/svg" xmlns:xlink="http://www.w3.org/1999/xlink">
    <title>Group 2</title>
    <defs>
        <path d="M88.7181983,2 C50.8888584,22.8948496 38.4498532,47.7422203 38.4498532,47.7422203 L29,46.2985917 C34.2009108,72.9081014 34.2550646,103.969631 34.2550646,103.969631 C34.2550646,103.969631 39.8813684,108.676031 40.0245912,110.331287 C41.7083495,129.80246 40.4243324,138.62028 40.4243324,138.62028 C54.4900919,155.897507 88.7181983,176 88.7181983,176 C88.7181983,176 123.338208,155.897507 137.403255,138.62028 C137.403255,138.62028 136.11995,129.80246 137.803709,110.331287 C137.946931,108.676031 143.572523,103.969631 143.572523,103.969631 C143.572523,103.969631 143.627389,72.9081014 148.827587,46.2985917 L139.379159,47.7422203 C139.379159,47.7422203 126.548251,22.8948496 88.7181983,2" id="path-1"></path>
        <filter x="-25.0%" y="-17.2%" width="150.1%" height="134.5%" filterUnits="objectBoundingBox" id="filter-2">
            <feOffset dx="0" dy="0" in="SourceAlpha" result="shadowOffsetOuter1"></feOffset>
            <feGaussianBlur stdDeviation="10" in="shadowOffsetOuter1" result="shadowBlurOuter1"></feGaussianBlur>
            <feColorMatrix values="0 0 0 0 0.960784314   0 0 0 0 0.733333333   0 0 0 0 0.0470588235  0 0 0 1 0" type="matrix" in="shadowBlurOuter1"></feColorMatrix>
        </filter>
    </defs>
    <g id="Page-1" stroke="none" stroke-width="1" fill="none" fill-rule="evenodd">
        <g id="APP-Challenges-Modal-Base-Desktop-" transform="translate(-872.000000, -103.000000)">
            <g id="Card---Available-Games-Copy-3" transform="translate(578.000000, 115.000000)">
                <g id="Group-2" transform="translate(294.000000, 6.000000)">
                    <g id="Fill-1">
                        <use fill="black" fill-opacity="1" filter="url(#filter-2)" xlink:href="#path-1"></use>
                        <use fill="#000036" fill-rule="evenodd" xlink:href="#path-1"></use>
                    </g>
                    <g id="Underchallenge---Icon" transform="translate(27.384615, 0.684615)">
                        <path d="M60.8898767,0.000217959184 C22.3183665,21.3050016 9.63532163,46.6398506 9.63532163,46.6398506 L7.26530612e-05,45.1678996 C5.30301959,72.2994588 5.35823592,103.970381 5.35823592,103.970381 C5.35823592,103.970381 11.0949216,108.769116 11.2409543,110.456847 C12.9577461,130.310022 11.648538,139.300838 11.648538,139.300838 C25.9902522,156.917026 60.8898767,177.413908 60.8898767,177.413908 C60.8898767,177.413908 96.1890931,156.917026 110.530081,139.300838 C110.530081,139.300838 109.221599,130.310022 110.938391,110.456847 C111.084424,108.769116 116.820383,103.970381 116.820383,103.970381 C116.820383,103.970381 116.876326,72.2994588 122.178546,45.1678996 L112.54475,46.6398506 C112.54475,46.6398506 99.4621135,21.3050016 60.8898767,0.000217959184" id="Fill-1" fill="#000036"></path>
                        <path d="M60.8898767,177.414126 C60.8898767,177.414126 96.1890931,156.917244 110.530081,139.301056 C110.530081,139.301056 109.221599,130.31024 110.938391,110.457064 C111.084424,108.769334 116.820383,103.970599 116.820383,103.970599 C116.820383,103.970599 116.876326,72.2996767 122.178546,45.1681176 L112.54475,46.6400686 C112.54475,46.6400686 99.4621135,21.3044931 60.8898767,0.000435918367" id="Fill-3" fill="#001D43"></path>
                        <path d="M62.6962498,29.1941069 C62.5502171,29.1941069 62.4056376,29.1999192 62.2596049,29.2006457 L62.21456,7.21946204 L40.3140212,18.1428498 L40.1149518,18.2264008 C40.2101273,18.5845804 40.2791478,18.9216906 40.3634253,19.2711518 C27.1115069,29.5108743 16.4256947,37.9429886 13.2420376,52.7082702 C13.0596784,53.0453804 12.8635151,53.3730457 12.6876947,53.7145151 L12.2779314,53.6818212 C6.57393959,52.858662 7.84536816,52.4474457 5.09036408,52.9066131 C5.09036408,52.9066131 6.99387429,60.8446865 9.25556408,72.3260498 L10.9469273,103.642425 L15.0728947,108.421544 C16.3145355,119.05214 16.9945682,129.477854 16.480911,137.903429 C16.480911,137.903429 26.5716947,151.235993 46.824462,160.281299 C46.824462,160.281299 46.8411722,158.769389 46.8397192,156.23307 C49.9085845,161.479348 51.9399641,164.644842 51.9399641,164.644842 L72.1455069,164.644842 C72.1455069,164.644842 106.968846,120.238564 106.968846,81.9852743 C106.968846,43.731258 86.8381355,29.1941069 62.6962498,29.1941069" id="Fill-5" fill="#000036"></path>
                        <path d="M111.56684,103.642207 L113.655616,68.5471461 C115.578742,58.9518563 117.089199,52.5700114 117.089199,52.5700114 C114.393044,52.9957584 115.754562,52.88024 109.733803,53.7208359 C109.68222,53.6946808 109.630636,53.6699788 109.579779,53.6438237 C107.04782,41.5427298 92.830342,28.6322808 80.7386931,19.5738971 C80.8425869,19.1278073 80.9406686,18.6868033 81.0634522,18.2261829 L80.8636563,18.1426318 L62.214342,7.21924408 L62.3836237,89.1253992 L83.3934359,75.5007706 L83.383991,75.3968767 C84.5805869,74.620942 85.2954931,74.1574155 85.2954931,74.1574155 L81.6926278,51.7701012 L85.233738,59.3616196 L89.7847257,71.3559135 L103.961518,62.1623951 L103.961518,87.5895135 L95.0644237,92.2160604 L97.3660727,93.2600849 L96.0568645,110.887897 L93.5677706,95.60024 L91.2908237,94.3193665 L62.8812971,106.459693 C68.0767176,108.871775 81.8255829,116.560648 81.8255829,116.560648 C77.9284727,138.051424 75.4517298,160.281081 75.4517298,160.281081 C94.4083665,149.69335 105.795281,137.903211 105.795281,137.903211 C105.290342,129.633113 105.929689,119.409375 107.118293,108.945881 L111.56684,103.642207 Z" id="Fill-7" fill="#F5BB0C"></path>
                        <path d="M93.5674073,95.600022 L68.2914073,106.458022 L83.8609584,116.017712 C83.8609584,116.017712 76.5368033,144.224536 75.4513665,160.280863 C75.4513665,160.280863 76.9196849,138.415924 81.8259461,116.561157 C81.0216767,115.355116 62.8816604,106.459475 62.8816604,106.459475 L91.2904604,94.3191486 L93.5674073,95.600022 Z" id="Fill-9" fill="#E0A929"></path>
                        <path d="M61.0601755,106.45824 L41.0965673,116.451669 L46.8238082,160.281081 C46.8238082,160.281081 40.9519878,119.489293 35.3112041,116.017203 L50.9541347,107.812493 L17.0687469,87.8103788 L20.9905592,68.2819624 L20.4674571,62.0316196 L24.2824694,68.5711216 L20.2044531,87.5800686 L61.0601755,106.45824 Z" id="Fill-11" fill="#F5BB0C"></path>
                        <path d="M15.3894441,93.8694988 C15.3894441,93.8694988 22.3975584,133.50465 20.0791992,137.941572 C20.0791992,137.941572 28.9850114,147.33634 33.543991,149.478152 C33.543991,149.478152 22.4040971,138.035295 22.6358604,136.590952 C24.4667176,125.129931 15.3894441,93.8694988 15.3894441,93.8694988" id="Fill-13" fill="#F5BB0C"></path>
                        <polygon id="Fill-15" fill="#E6CD9C" points="97.3661453 93.2600849 104.743337 89.7632931 103.96159 62.052689 105.795353 92.3882482 97.0944229 96.9188931"></polygon>
                        <polygon id="Fill-17" fill="#E0A929" points="95.0644963 92.216351 97.3661453 93.2603755 104.743337 89.7628571 103.96159 62.0529796 103.96159 87.5890776"></polygon>
                        <path d="M53.574222,12.8531984 C53.574222,12.8531984 21.4593894,31.7241045 17.9429812,49.1877208 C17.9429812,49.1877208 29.7992343,37.4215576 39.0639527,34.192129 C39.0639527,34.192129 31.1135282,31.8294514 30.2758384,33.1313943 C29.4381486,34.4333371 53.574222,12.8531984 53.574222,12.8531984" id="Fill-19" fill="#F5BB0C"></path>
                        <path d="M72.2021763,118.982393 L55.9787478,118.535576 C55.9787478,118.535576 61.479311,121.068989 61.442258,122.811936 L71.7822416,121.982964 L71.7822416,120.673756 L72.2021763,120.673756 L72.2021763,118.982393 Z" id="Fill-21" fill="#001D43"></path>
                        <path d="M61.3581257,127.663852 C61.3581257,127.663852 67.3265747,126.707011 68.1671706,126.195534 C68.1671706,126.195534 69.7640849,125.493705 69.2598727,127.982799 C68.7563869,130.47262 67.6629584,132.451689 68.3357257,134.303616 C69.0077665,136.154816 61.9001176,136.855918 61.5455706,136.665567 C61.5455706,136.665567 59.5091053,132.259885 60.2654237,130.792293 C61.021742,129.323975 61.3581257,127.663852 61.3581257,127.663852" id="Fill-23" fill="#001D43"></path>
                        <path d="M87.0513722,81.9853469 C86.8334131,85.107249 84.0725967,88.8692245 81.6612416,90.6673878 C78.7427682,92.8418939 74.8972416,93.2385796 71.5036171,92.0347184 C73.6497886,96.0386286 79.8035029,94.6509551 83.0590865,93.3802531 L81.1214294,95.9797796 C81.1214294,95.9797796 83.9657967,97.0543184 86.9017069,90.2779673 C86.9017069,90.2779673 84.507062,90.6136245 84.5005233,90.6150776 C85.098458,90.5308 85.9237967,88.6410939 86.1279518,88.2080816 C87.0397478,86.2704245 87.2998457,84.1010041 87.0513722,81.9853469" id="Fill-25" fill="#001D43"></path>
                        <polyline id="Fill-27" fill="#001D43" points="69.4861869 92.9464416 89.6873706 78.9977804 89.6873706 80.6317478"></polyline>
                        <path d="M77.7675461,88.1505404 L81.2846808,85.9724016 C81.2846808,85.9724016 80.3845094,88.604622 79.5867788,89.1713159 C78.7883216,89.7387363 76.1793502,89.1713159 76.1793502,89.1713159 L77.7675461,88.1505404 Z" id="Fill-29" fill="#F5BB0C"></path>
                        <path d="M45.5277502,88.1505404 L42.011342,85.9724016 C42.011342,85.9724016 42.9115135,88.604622 43.7092441,89.1713159 C44.5069747,89.7387363 47.1166727,89.1713159 47.1166727,89.1713159 L45.5277502,88.1505404 Z" id="Fill-31" fill="#F5BB0C"></path>
                        <polygon id="Fill-75" fill="#E6CD9C" points="93.3543732 95.8461538 75.3076923 104.061538 93.7923077 98.2236178"></polygon>
                    </g>
                </g>
            </g>
        </g>
    </g>
</svg>