<?xml version="1.0" encoding="UTF-8"?>
<svg width="195px" height="161px" viewBox="0 0 195 161" version="1.1" xmlns="http://www.w3.org/2000/svg" xmlns:xlink="http://www.w3.org/1999/xlink">
    <title>Shape</title>
    <g id="Page-1" stroke="none" stroke-width="1" fill="none" fill-rule="evenodd">
        <g id="INGAME-Settings-Overlay" transform="translate(-418.000000, -403.000000)" fill="#C0C0C0">
            <path d="M600,403 C607.127077,403 613,408.897362 613,416.054049 L613,524.837854 C613,531.994518 607.127077,537.891902 600,537.891902 L535,537.891902 L535,555.297301 L541.5,555.297301 C543.893235,555.297301 545.833333,557.2454 545.833333,559.64865 C545.833333,562.051901 543.893235,564 541.5,564 L489.5,564 C487.106765,564 485.166667,562.051901 485.166667,559.64865 C485.166667,557.2454 487.106765,555.297301 489.5,555.297301 L496,555.297301 L496,537.891902 L431,537.891902 C423.872923,537.891902 418,531.994518 418,524.837854 L418,416.054049 C418,408.897362 423.872923,403 431,403 L600,403 Z M599.658537,412 L430.341464,412 C427.861185,412 426,413.873577 426,416.370368 L426,525.629632 C426,528.126423 427.861185,530 430.341464,530 L599.658537,530 C602.138815,530 604,528.126423 604,525.629632 L604,416.370368 C604,413.873577 602.138815,412 599.658537,412 Z M526,537 L504,537 L504,555 L526,555 L526,537 Z" id="Shape"></path>
        </g>
    </g>
</svg>