<svg xmlns="http://www.w3.org/2000/svg" xmlns:xlink="http://www.w3.org/1999/xlink" width="357" height="1074" viewBox="0 0 357 1074">
    <defs>
        <path id="3bstp7ux2a" d="M0 0.789H357V1104.789H0z"/>
        <path id="z8jcw9xzsc" d="M0.069 0.135L384.946 0.135 384.946 1071.577 0.069 1071.577z"/>
    </defs>
    <g fill="none" fill-rule="evenodd" opacity=".03">
        <g>
            <g transform="translate(0 -6) translate(0 -1)">
                <mask id="v26mz4njkb" fill="#fff">
                    <use xlink:href="#3bstp7ux2a"/>
                </mask>
                <g mask="url(#v26mz4njkb)">
                    <g>
                        <path fill="#FEFEFE" d="M322.72 810.21l71.378-5.821v-9.176H397v-11.871l-112-3.131s37.974 17.772 37.72 30M368.768 834.84c-5.809 3.525-47.052 10.123-47.052 10.123s-2.324 11.442-7.552 21.56c-5.228 10.118 8.845 40.476 8.845 40.476 2.45 1.325 51.568-3.515 46.92-16.272-4.646-12.767 2.905-26.405 6.39-43.568 3.486-17.159-7.551-12.319-7.551-12.319M521 503.21l-142 96.574 123.245-73.999c-2.468 21.225-21.193 46.128-37.659 58.217-20.512 15.058-47.545 17.797-71.404 9.468 15.085 27.72 58.345 18.11 81.231 9.312l-13.625 17.997s19.996 7.443 40.638-39.472c0 0-16.833 2.323-16.883 2.328 4.206-.577 10.005-13.664 11.44-16.657 6.173-12.911 8.055-27.299 6.635-41.418L521 514.522v-11.311z" transform="translate(-355 7.79)"/>
                        <path fill="#FEFEFE" d="M462 552.21l-24.802 15.148-11.198 7.1s18.401 3.944 24.025 0C455.654 570.516 462 552.21 462 552.21" transform="translate(-355 7.79)"/>
                        <g transform="translate(-355 7.79) translate(327 .21)">
                            <mask id="nbvernpfud" fill="#fff">
                                <use xlink:href="#z8jcw9xzsc"/>
                            </mask>
                            <path fill="#FEFEFE" d="M103.25 988.207c-6.633 50.225-10.324 83.246-10.34 83.36 1.67-24.685 5.456-53.468 10.34-83.36m230.107-662.558c-.356-.178-.718-.356-1.08-.544-17.757-84.7-117.476-175.077-202.282-238.49.729-3.12 1.417-6.205 2.28-9.434l-1.403-.584L.07.135l1.184 573.349 147.361-95.376-.064-.727 13.407-8.678-25.273-156.712 24.837 53.147 31.917 83.958 99.436-64.357v177.99l-62.402 32.388h.005-.005l16.147 7.309-1.907 25.614-7.279 97.78-14.779-90.57.5-.149-3.18-16.293-15.969-8.965-37.312 15.913-161.947 69.07h.005c.005.004 9.473 4.637 23.316 11.525 43.42 22.282 109.553 59.185 109.553 59.185 0 .005-.005.01-.005.015-34.384 152.88-44.69 305.813-44.704 306.026 27.636-15.403 52.944-31.162 75.75-46.482v.025s75.451-41.017 137.065-110.17l.01-.01v-.01l9.265-202.595c.005-.04.01-.074.01-.11l31.203-37.12 14.656-245.67c13.486-67.17 24.078-111.841 24.078-111.841-18.91 2.976-9.364 2.17-51.59 8.055" mask="url(#nbvernpfud)"/>
                        </g>
                    </g>
                </g>
            </g>
        </g>
    </g>
</svg>
