<svg xmlns="http://www.w3.org/2000/svg" width="111" height="64" viewBox="0 0 111 64">
    <g fill="none" fill-rule="evenodd">
        <g fill="#FFF">
            <g>
                <g>
                    <g>
                        <path d="M84.122 11.07l-4.893.045-.9.792c-.764.668-.924.936-1.035 1.916-.259 1.973-.259 4.737-.05 9.15.111 2.351.185 4.636.136 5.092-.05.457-.086 4.28-.086 8.526l-.025 7.689.555.813c.296.435.875.914 1.282 1.081.924.357 10.155.435 11.375.1 1.122-.311 2.022-1.348 2.157-2.496.234-2.017.136-17.373-.11-17.952l-.26-.558h-3.155c-2.132 0-3.241.078-3.426.245-.185.168-.271.981-.271 2.24v1.995l.69.357.69.379.025 2.329c0 1.292 0 3.365-.025 4.658-.024 1.393.074 2.474.234 2.697.185.267.21.535.025.936-.234.557-.259.557-1.972.48-1.96-.079-2.317-.213-1.96-.625.26-.29.37-14.821.16-21.653l-.11-3.343 1.651-.078c2.465-.1 2.44-.123 2.44 1.37 0 .725.112 1.394.272 1.539.21.19.21.245 0 .245-.506 0-.296.58.259.69.825.146 4.067.023 4.301-.189.086-.1.234-1.705.296-3.577l.086-3.41-.64-.58c-.555-.501-1.036-.668-2.577-.891-.148-.045-2.477-.045-5.14-.011zm-65.692.402c-.209.19-.27 1.37-.209 4.257.074 4.658.05 4.302.32 3.912.185-.246.235-.19.235.245 0 .29-.111.58-.272.624-.21.067-.27.958-.27 3.098-.025 2.596-.075 3.076-.42 3.388-.345.29-.419.746-.419 2.663 0 1.27.074 2.24.16 2.184.21-.19.986.457.986.836 0 .145-.074.268-.16.268-.11 0-.21 2.852-.259 6.34-.024 3.489.05 6.341.136 6.341.11 0 .32.234.456.524.259.502.345.524 2.551.524 3.402 0 3.217.379 3.155-7.188-.049-3.31-.086-6.107-.135-6.218-.259-.892-.136-.936 3.13-.936 3.538 0 4.869-.234 5.657-.981l.53-.524.074-9.015c.05-6.074-.024-9.172-.185-9.44-.579-.958-1.195-1.036-8.208-1.103-4.856-.033-6.68.012-6.853.201zm9.072 4.981c.024.212.024 2.43.049 4.948 0 2.519.074 4.402.11 4.202.186-.624.53-.38.53.39 0 .601-.073.724-.369.624-.259-.078-.32-.023-.234.245.11.312-.025.357-1.405.29-.875-.045-1.652-.212-1.837-.357-.37-.334-.394-.936-.049-.936.16 0 .21-1.46.111-4.759-.05-2.618-.05-4.825.025-4.88.086-.067.8-.123 1.614-.123 1.233.01 1.455.067 1.455.356zM38.1 11.405c-.394.412-.259 5.026.16 4.948.136-.022.271.1.271.268 0 .167-.135.29-.27.245-.21-.023-.321.312-.37 1.058-.05.87 0 1.081.234.959.234-.123.234-.1.049.145-.37.434-.616 23.982-.271 25.375.21.746.456 1.147 1.035 1.515l.764.535 6.027-.078c6.717-.078 7.198-.19 7.925-1.46.505-.891.715-7.9.591-20.104-.049-4.97-.086-9.918-.086-10.954 0-1.204-.086-1.973-.259-2.084-.16-.067-.32-.022-.37.1-.11.357-.505.312-.505-.067 0-.245-.37-.312-1.96-.312-3.155 0-2.92-.69-2.896 8.893.025 4.424.087 9.294.16 10.788.111 1.972.074 2.763-.11 2.763-.42 0-.296.792.16 1.014.271.168.32.268.11.38-.16.122-.295 1.147-.344 3.008-.074 2.407-.136 2.909-.481 3.22-.394.357-.431.357-.715 0-.345-.39-1.306-.456-1.996-.122-.69.312-1.406-.29-1.22-1.036.16-.624.27-17.875.16-24.127l-.087-4.28-.986-.478c-.665-.335-1.146-.457-1.43-.335-.43.167-1.971.167-2.637-.022-.21 0-.493.078-.653.245zm20.484-.022c-.259.312-.345 7.856-.086 8.87.11.39.11 1.371.049 2.185-.086.813-.074 1.56.05 1.705.295.334 0 1.103-.42 1.103-.185 0-.271.1-.21.212.074.122-.024.356-.209.535-.419.379-.53 3.287-.136 3.51.136.067.235.312.235.524 0 .212.11.412.258.457.21.067.272 1.928.272 6.82-.025 3.911.074 6.853.21 7.01.11.122.11.29.024.334-.111.067-.16.501-.111.958l.086.847 6.138-.067c9.145-.067 8.615.524 8.64-9.706 0-6.876-.025-7.188-.456-7.612-1.38-1.348-1.541-1.604-1.171-1.783.924-.457 1.146-1.415 1.195-4.535.025-1.66.074-4.68.111-6.709.074-3.488.05-3.722-.419-4.112-.715-.646-1.787-.769-8.023-.791-4.351 0-5.842.044-6.027.245zm8.603 4.747c.135.212.135 1.783 0 7.879-.025 1.516-.136 1.605-1.862 1.348l-.986-.122-.135-1.805c-.074-1.003-.136-1.95-.16-2.118 0-.167.074-1.46.16-2.864l.16-2.54h1.331c.727-.012 1.393.088 1.492.222zM10.603 0c.54.003 1.153.012 1.85.027 1.737.026 5.993.058 10.494.071l.846.003h.424l.849.002c.706.002 1.41.002 2.103.002l2.002.001c8.667.008 9.947.08 9.694.434-.062.111.05.19.234.19.21 0 .345-.123.296-.268-.012-.179 1.01-.245 4.671-.245h.311c3.352.003 4.397.06 4.397.245 0 .145.123.256.234.211.136-.022.21-.111.185-.189-.049-.078.16-.2.456-.267.132-.03 1.041-.045 2.525-.047h.671c3.055.003 7.993.049 13.517.125.567.01 1.898-.034 2.982-.067C70.43.194 75.137.15 79.808.128l.703-.004c4.205-.022 8.147-.06 9.257-.063h.805c.805-.002 1.742-.005 2.336-.023 1.972 0 5.88.245 6.126.446.148.056 1.01.1 1.935.078 3.143-.078 3.623.747 3.882 6.53.148 3.745.234 3.968 1.27 3.723 1.035-.257 3.303-.09 3.672.267.296.29.296.312-.074.19-.295-.09-.394-.045-.32.122.05.156.234.256.37.234.172-.045.259.334.259 1.036 0 .58.061 1.416.135 1.806.099.59 0 .836-.48 1.292-.555.535-.715.58-2.601.58h-2.046l.074 12.515.05 12.537 2.095.1c2.095.1 2.181.145 2.736 1.036.258.413.024 3.745-.272 3.678-.11-.022-.27.089-.32.212-.074.167.062.267.32.267.346.022.37.045.074.212-.468.223-2.97.334-3.635.122-.37-.1-.555-.055-.641.19-.099.19-.16 2.14-.185 4.368-.012 4.514-.111 4.826-1.787 5.572-1.01.457-7.025.78-6.754.39.086-.145.024-.245-.21-.245-.197 0-.32.067-.27.145.048.08-2.76.124-6.693.128h-.926c-.735 0-1.502-.002-2.291-.005-5.546-.023-10.858-.045-11.82-.067-1.49 0-1.737-.045-1.651-.312.098-.167.025-.312-.111-.312-.148 0-.259.122-.259.29 0 .248-3.507.448-7.393.504l-.616.007-.62.005-.62.003h-.618c-1.234-.004-2.439-.023-3.518-.063-1.935-.055-5.842-.122-8.689-.122h-1.41c-3.706-.005-3.778-.047-3.988-.457-.246-.502-.801-.758-.801-.379 0 .123.123.167.234.1.148-.067.234.056.234.29 0 .245-.098.435-.234.435-.123 0-.234-.112-.234-.234 0-.168-.086-.168-.32 0-.272.234-.641.256-2.133.234-1.072-.023-2.058 0-3.167.078-1.09.084-4.077.124-7.802.13h-1.371c-1.399-.002-2.875-.008-4.374-.018l-1.002-.007-1.005-.009c-5.365-.049-10.718-.149-13.619-.286-4.462-.223-4.634-.468-4.548-6.084l.074-3.99H3.086C.19 47.3.091 47.177.14 43.868c.025-1.627.05-1.66.74-2.04.456-.234 1.183-.356 2.181-.356.999 0 1.516-.078 1.59-.268.095-.233.202-11.847.211-19.01v-2c-.003-2.038-.019-3.406-.05-3.518-.099-.29-.37-.356-1.91-.356-1.652 0-1.837-.045-2.392-.58-.48-.457-.567-.713-.48-1.293.061-.39.135-1.225.135-1.827 0-.68.099-1.059.259-1.037.135.034.32-.066.37-.211.074-.167-.025-.2-.32-.123-.395.123-.395.123-.05-.212.407-.4 2.822-.546 3.833-.234.505.145.505.145.53-2.306.008-.457.014-.987.016-1.533l.002-.824c0-.822-.006-1.616-.018-2.19-.05-1.995-.025-2.095.591-2.764C5.81.706 6.39.417 7.166.206 7.737.073 8.604.006 10.086 0zm85.35 5.644c-.11-.167-.184-.19-.184 0 0 .122-5.55.19-20.788.201h-1.274l-.654.001H67.42c-4-.001-8.496-.006-13.53-.013-23.047-.022-42.09-.122-42.299-.2-.27-.134-.407-.09-.431.1 0 .167-.025 1.304-.05 2.574-.049 1.237-.147 2.407-.234 2.552-.123.145-.074.602.087 1.014.32.925.27 3.433-.074 3.622-.16.09-.111.167.074.234l.01.003.027.009c.011.004.023.01.034.018l.015.014c.138.147.191.902.196 6.068v1.93c-.003 3.633-.021 8.924-.048 16.63-.025 6.61-.074 7.523-.37 7.423-.234-.09-.345.022-.345.29 0 .267.11.367.345.29.296-.101.345.144.345 1.537 0 .936.099 1.716.21 1.783.086.067 1.466.123 3.032.145 1.811.022 2.92.1 3.007.267.11.168.246.145.456-.044.308-.268 1.11-.346 1.11-.1 0 .05.467.075 1.224.078h.341c.716-.004 1.624-.023 2.612-.056 1.916-.055 7.089-.103 12.43-.13l.867-.004 2.59-.011h2.741l.353.001h.68c6.826.01 7.882.058 7.787.289-.099.212.024.312.32.312s.407-.1.32-.312c-.11-.268 1.492-.312 13.841-.335l7.237-.006 1.186-.001 2.801-.002h1.056l.514-.001h1.002l.488-.001h1.412l.454-.001H88.664l.294.001h.57l.274.001h.53c3.965.008 5.702.024 6.484.055.875.022 1.75-.022 1.91-.1.133-.073.195-.573.2-1.947v-.347c-.002-.91-.024-2.15-.064-3.813-.077-3.26-.137-10.786-.14-15.616v-.991c.002-1.575.01-2.742.03-3.185v-.227c-.005-.994-.07-5.019-.14-9.083l-.014-.786c-.07-4.056-.145-7.958-.167-8.715l-.025-1.036-1.146-.067c-.616-.023-1.22-.167-1.306-.312zM67.09 30.74c.086.123.185 1.727.185 3.555s.024 4.179.024 5.238c.025 1.036-.024 1.994-.11 2.095-.185.267-2.576.167-2.97-.145-.26-.19-.297-.435-.161-1.003.107-.397.202-2.592.21-4.964v-.873c.006-3.336.066-3.925.37-4.115.43-.29 2.205-.145 2.452.212z" transform="translate(-1741 -1097) translate(320 1004) translate(1061 70) translate(360 23)"/>
                    </g>
                </g>
            </g>
        </g>
    </g>
</svg>
