<svg xmlns="http://www.w3.org/2000/svg" width="15" height="8" viewBox="0 0 15 8">
    <g fill="none" fill-rule="evenodd">
        <g fill="#FFF">
            <g>
                <g>
                    <g>
                        <path d="M9.002 19.03c-.234 0-.46-.082-.64-.23-.205-.17-.333-.414-.358-.679-.024-.264.058-.528.228-.732l4.48-5.36-4.32-5.37c-.168-.206-.247-.471-.218-.736.028-.265.16-.507.368-.674.209-.184.485-.272.763-.244.277.029.53.172.697.394l4.83 6c.303.37.303.901 0 1.27l-5 6c-.204.246-.512.38-.83.36z" transform="translate(-521 -2195) translate(320 2152) translate(0 25) translate(197 10) rotate(90 11.53 12.016)"/>
                    </g>
                </g>
            </g>
        </g>
    </g>
</svg>
