<?xml version="1.0" encoding="utf-8"?>
<!DOCTYPE svg PUBLIC "-//W3C//DTD SVG 20010904//EN" "http://www.w3.org/TR/2001/REC-SVG-20010904/DTD/svg10.dtd">
<svg version="1.0" xmlns="http://www.w3.org/2000/svg" width="374px" height="355px" viewBox="0 0 374 355" preserveAspectRatio="xMidYMid meet">
 <g fill="#1e130e">
  <path d="M186.4 353.2 c-8.9 -1.8 -25.3 -7.3 -53.3 -17.8 -44.1 -16.7 -128.5 -51.4 -131.1 -53.9 -1.3 -1.4 -1.5 -16.4 -1.5 -137.3 0 -146.2 -0.3 -138.3 5.2 -142 2.6 -1.6 12.9 -1.7 181.3 -1.7 168.4 0 178.7 0.1 181.3 1.7 1.4 1 3.2 2.8 3.9 4 1.9 3.3 2.4 270.1 0.5 273.8 -2.7 5.5 -86.9 45.5 -129.4 61.5 -28.7 10.9 -44.8 14.2 -56.9 11.7z m59.9 -14.8 c16.6 -6.3 46 -19.2 72.9 -32 25.4 -12 51.8 -25.6 51.8 -26.5 0 -0.4 -5.5 2.2 -12.2 5.8 -29.5 15.7 -86.2 41.7 -112.8 51.8 -6.9 2.6 -12.7 4.9 -12.9 5.1 -1.1 1 1.8 0.1 13.2 -4.2z"/>
 </g>
</svg>