<?xml version="1.0" encoding="UTF-8"?>
<svg width="170px" height="39px" viewBox="0 0 170 39" version="1.1" xmlns="http://www.w3.org/2000/svg" xmlns:xlink="http://www.w3.org/1999/xlink">
    <title>branding/Underchallenge - Horizontal</title>
    <g id="Page-1" stroke="none" stroke-width="1" fill="none" fill-rule="evenodd">
        <g id="Mobile" transform="translate(-103.000000, -11.000000)">
            <g id="Group" transform="translate(103.000000, 10.000000)">
                <g id="Underchallenge---Horizontal" transform="translate(-0.000059, 1.176706)">
                    <path d="M85.6588235,0 L116.004706,0 C116.004706,0 113.063529,2.23235294 113.063529,4.27823529 L113.063529,7.14705882 C113.063529,7.14705882 124.105294,7.28411765 165.001765,4.06 L165.001765,23.7776471 L169.544118,38.34 L85.6547059,38.34 L-1.67186526e-14,38.34 L4.54352941,23.7776471 L4.54352941,4.06 C45.4394118,7.28411765 58.2458824,7.14705882 58.2458824,7.14705882 L58.2458824,4.27823529 C58.2458824,2.23235294 55.3047059,0 55.3047059,0 L85.65,0" id="Fill-1" fill="#000000"></path>
                    <path d="M110.657882,2.66688235 C110.492588,3.18158824 110.395529,3.721 110.395529,4.27864706 L110.395529,4.27864706 L110.395529,9.78217647 L113.030824,9.81511765 L113.030824,9.81511765 L113.101365,9.81578588 C113.118235,9.81588471 113.137694,9.81597412 113.159788,9.81604941 L113.51914,9.8159012 C115.890395,9.80679171 127.166588,9.61937059 158.412,7.24629412 C157.954941,7.73452941 157.664353,8.37158824 157.602588,9.07747059 C127.372753,11.3600118 116.151731,11.5673266 113.59904,11.5802597 L113.45069,11.5808319 C113.40494,11.5809496 113.362859,11.581 113.324353,11.581 L113.224753,11.5809341 C113.194565,11.5808918 113.167365,11.5808306 113.143082,11.5807553 L113.031835,11.5801718 L113.031835,11.5801718 L113.001412,11.5798235 L110.373765,11.5468824 L108.630824,11.5251176 L108.630824,4.43158824 L85.6537647,4.43158824 L85.6502353,3.38276471 L61.5390588,3.38276471 L61.5390588,10.2598235 C61.5390588,10.2598235 60.8602598,10.2911308 59.2484952,10.2942372 L58.5998543,10.2939639 C52.9758818,10.2791396 38.4264235,9.93458824 7.79905882,7.58570588 L7.79905882,7.58570588 L7.79905882,24.4039412 L7.73023529,24.6433529 L7.62552941,25.0057059 L4.71670588,33.9074706 L163.652,33.9074706 L160.742588,25.0062941 L160.637882,24.6433529 L160.569059,24.4039412 L160.569059,12.4092353 C160.597294,12.4098235 160.623176,12.4174706 160.651412,12.4174706 C161.273765,12.4174706 161.850235,12.2298235 162.333765,11.9121765 L162.333765,11.9121765 L162.333765,24.1545294 L162.438471,24.5168824 L165.997882,35.6721765 L85.6549412,35.6721765 L85.6537647,34.5427647 L4.01023529,34.5427647 L7.23788235,24.1545294 L7.23788235,6.94511765 C40.7320882,9.54588235 54.6170926,9.79643088 57.6033213,9.81498382 L57.777515,9.81586688 C57.8041591,9.81596924 57.829616,9.81605082 57.8538957,9.81611412 L58.1496706,9.81604941 C58.1717412,9.81597412 58.1912,9.81588471 58.2080941,9.81578588 L58.2790588,9.81511765 L60.9137647,9.78217647 L60.9137647,4.27864706 C60.9137647,3.721 60.8167059,3.18158824 60.652,2.66688235 L60.652,2.66688235 Z M17.7927647,12.631 C20.5957059,12.9039412 22.5339412,13.7539412 24.4051176,15.3786471 C23.021,16.5827647 22.3286471,17.1939412 20.9445294,18.4392353 C20.0762941,17.1733529 18.9127647,16.4851176 17.7957059,16.3986471 C16.5651176,16.3039412 15.0839412,16.9768824 15.0851176,18.3786471 L15.0880588,24.5745294 C15.0886471,25.9762941 16.5721765,26.7986471 17.8039412,26.8245294 C19.1045294,26.8515882 20.0398235,26.3198235 20.8368824,25.131 C22.271,26.5468824 22.9880588,27.2415882 24.4227647,28.6062941 C22.5533529,30.1157059 20.3174706,30.7180588 17.8074706,30.7180588 C14.8404118,30.7180588 10.3892353,29.4874706 10.3892353,25.0121765 L10.3892353,17.6039412 C10.3892353,13.1280588 14.831,12.3427647 17.7927647,12.631 Z M141.210941,15.6208235 C140.632265,16.1985196 140.174095,16.6536667 139.736009,17.0849847 L139.21352,17.5974466 C138.775435,18.0254967 138.317265,18.4692059 137.738588,19.0272941 C136.873294,17.9255294 135.710941,17.4396471 134.592706,17.5037647 C133.360941,17.5755294 131.876824,18.3643529 131.873882,19.6202353 C131.869765,21.8949412 131.867412,23.032 131.862706,25.3061176 C131.860353,26.562 133.342706,27.2484706 134.575059,27.2296471 C135.236824,27.2196471 135.914471,27.0825882 136.446824,26.7114118 C136.783294,26.4767059 136.780941,26.2284706 136.790941,25.6555294 C136.803882,24.9449412 136.816235,24.4649412 136.817412,23.882 C136.242706,23.9002353 135.954471,23.9084706 135.379765,23.9255294 C134.916824,22.6690588 134.685059,22.0443529 134.222118,20.8002353 C137.005059,20.6808235 138.397412,20.6167059 141.179765,20.4796471 C141.173294,24.5649412 141.170353,26.6084706 141.163882,30.6931765 C141.163882,30.6931765 140.206824,30.0067059 139.042706,30.0102353 C137.901529,30.0143529 137.147412,30.6937647 134.568588,30.6943529 C131.510353,30.6943529 127.152706,29.6196471 127.160343,25.7878824 C127.165647,23.2514118 127.168588,21.9831765 127.173294,19.4467059 C127.180353,15.6155294 131.541529,14.262 134.599176,14.0396471 C137.404471,13.8349412 139.342706,14.3037647 141.210941,15.6208235 Z M75.623,16.4653529 C78.1818235,16.5000588 79.4618235,16.5118235 82.0206471,16.5235882 L82.0211917,18.5997974 L82.0212753,18.9182378 L82.0212753,18.9182378 L82.0221176,22.1291765 C82.0221667,22.3160229 82.0222157,22.5028693 82.0222649,22.6904849 L82.0232163,26.3167812 L82.023336,26.773261 L82.023336,26.773261 L82.0235882,27.7347647 L82.0235882,27.7347647 L82.8988974,27.7356106 C83.0338587,27.7357321 83.1642322,27.7358439 83.2913285,27.735946 L86.3835882,27.7365294 L86.3835882,27.7365294 C87.9359412,27.7359412 88.8718235,27.3353529 89.6712353,26.3324118 C90.0546578,27.2490963 90.3334229,27.9162134 90.621607,28.6064958 L90.9171557,29.3146012 C91.0707248,29.6826159 91.2361551,30.0791497 91.4277059,30.5382941 L77.323,30.5377059 L77.322374,29.6131592 C77.3222741,29.4644015 77.3221761,29.3181645 77.3220801,29.1742289 L77.3212619,27.9350318 C77.3208734,27.3405861 77.3205121,26.7794321 77.3201617,26.2315995 L77.3194706,25.1477794 C77.3193562,24.9681307 77.3192418,24.7884829 77.3191268,24.6080964 L77.3184248,23.5109956 C77.318305,23.3246957 77.3181834,23.1361778 77.3180593,22.9447023 L77.317281,21.7544406 L77.3169683,21.2825462 L77.3169683,21.2825462 L77.3162999,20.2863451 C77.3161832,20.113864 77.3160637,19.937951 77.3159412,19.7582941 C77.3153529,18.5135882 76.6747647,17.3635882 75.623,16.4653529 Z M107.172706,16.2273529 C106.994897,16.6709635 106.765588,17.2476572 106.532041,17.8324214 L106.376235,18.2220879 C105.910043,19.386443 105.468913,20.4719574 105.430941,20.4785294 C105.239765,20.5114706 103.696824,19.0897059 102.143882,19.1185294 C100.389765,19.1502941 99.5127059,19.165 97.7585882,19.1891176 L97.7581723,19.6023265 L97.7574508,20.3191946 C97.7573382,20.4310616 97.7572279,20.5406434 97.7571176,20.6502206 L97.7564375,21.3258732 L97.7561917,21.5699864 L97.7561917,21.5699864 L97.7556471,22.1108824 L97.7556471,22.1108824 C99.7832941,22.0908824 100.797412,22.0785294 102.825059,22.0491176 C102.367412,23.1720588 102.138,23.7020588 101.657412,24.8208824 C101.032471,24.8267647 100.532612,24.8312353 100.057807,24.8351976 L99.3518871,24.8408729 C98.8771294,24.8445529 98.3774118,24.8481765 97.7527059,24.8526471 C97.7525098,25.047549 97.7523301,25.2262092 97.7521612,25.3940387 L97.7514566,26.0944278 C97.7513824,26.1681842 97.7513088,26.2412623 97.7512353,26.3143382 L97.7505551,26.9902298 C97.7503162,27.2276838 97.7500588,27.4833824 97.7497647,27.7755882 C99.5027059,27.7697059 100.379765,27.7661765 102.132706,27.7573529 C103.685059,27.7497059 105.372118,26.3038235 105.422118,26.3120588 C105.526621,26.3293813 105.933,27.3092247 106.325433,28.3182212 L106.491844,28.7497121 C106.846562,29.6766843 107.150353,30.5138235 107.150353,30.5138235 C102.442118,30.5220588 97.7327059,30.5308824 93.0232941,30.5379412 L93.0240591,29.1750121 L93.0242452,28.855074 L93.0242452,28.855074 L93.0251566,27.3524277 C93.0255169,26.778173 93.0258746,26.2305386 93.0262377,25.6895655 L93.0269736,24.610587 C93.0270983,24.4302663 93.0272242,24.2492072 93.0273515,24.0666706 L93.0281365,22.9478065 L93.0284284,22.5328618 L93.0284284,22.5328618 L93.0290342,21.6693599 C93.0291379,21.5211694 93.029243,21.3706625 93.0293496,21.2175699 L93.0300082,20.2658298 C93.0301214,20.1013166 93.0302362,19.9336788 93.0303529,19.7626471 C93.0309412,18.5185294 92.3921176,17.3808824 91.3409412,16.5079412 C96.6197647,16.4514706 101.895059,16.3585294 107.172706,16.2273529 Z M59.9086471,16.0825294 C61.0050336,16.1211008 61.8664262,16.1502725 62.6942945,16.1763881 L63.5184498,16.2017199 C64.3463541,16.226503 65.2078908,16.2503445 66.3045294,16.2795882 C66.311,20.8407647 66.3139412,23.1213529 66.3198235,27.6831176 C68.0633529,27.6931176 68.9357059,27.6978235 70.6792353,27.7048824 C72.2315882,27.7119412 73.1674706,27.3107647 73.9651176,26.3078235 C74.6704118,28.0025294 75.0221765,28.849 75.7268824,30.5378235 C71.0245294,30.5366471 66.3233529,30.5348824 61.6215882,30.5331176 C61.6145294,26.1154706 61.611,23.9078235 61.6039412,19.4913529 C61.6021765,18.2166471 60.961,17.0278235 59.9086471,16.0825294 Z M125.348765,14.9581765 L125.331118,14.9768529 C125.320824,14.9883235 125.304941,15.0064118 125.279941,15.0352353 C124.625824,15.6846471 123.982882,16.4546471 123.982882,17.9511176 C123.975235,22.1334706 123.966412,26.3052353 123.958176,30.4964118 C122.452294,30.4975882 121.039353,29.5628824 118.988765,27.3211176 C117.356664,25.5355294 116.481817,24.5913908 114.956953,22.9636875 L114.592882,22.5752353 L114.578176,30.5028824 L113.204757,30.5037256 L113.204757,30.5037256 L111.631763,30.5045653 L111.227829,30.5047421 L111.227829,30.5047421 L109.854059,30.5052353 C109.860149,26.5113253 109.864154,24.3969023 109.87049,20.6241084 L109.871706,19.8964118 L109.854059,15.5846471 L113.349353,15.5181765 C115.711118,17.9975882 116.891118,19.2511176 119.251118,21.8058235 C119.256412,19.1822941 119.258765,17.8711176 119.263471,15.2481765 C120.407588,15.1905294 121.206412,15.1622941 122.076412,15.1252353 C123.145235,15.0752353 124.009941,15.0311176 125.348765,14.9581765 Z M47.1230588,15.0848824 C49.9442353,15.2384118 51.3554118,15.3078235 54.1777647,15.4331176 C56.1012941,20.4707647 58.0512941,25.4942941 60.0254118,30.5054706 L58.6584595,30.5047109 L57.0929634,30.5038959 L56.8940789,30.5037727 L56.8940789,30.5037727 L55.814774,30.5029692 C55.6579008,30.5028357 55.4946631,30.5026898 55.3236471,30.5025294 C54.8654118,29.3266471 54.6365882,28.7366471 54.1771765,27.5531176 C52.5065882,27.5372353 51.6712941,27.5295882 50.0007059,27.5119412 C49.7271765,27.509 49.4530588,27.6807647 49.3624706,27.9425294 C48.9718824,28.9613529 48.7765882,29.4725294 48.3865882,30.4984118 C48.0445561,30.4980909 47.7336373,30.4978089 47.4425179,30.4975553 L46.6172436,30.4968685 L46.2279415,30.4965688 L46.2279415,30.4965688 L45.0515496,30.4957495 L43.6842353,30.4948824 C45.4454118,25.7425294 46.3271765,23.4084118 48.0895294,18.8019412 C48.566,17.5701765 48.2207059,16.179 47.2371765,15.2013529 L47.1973943,15.1605686 L47.1230588,15.0848824 Z M25.9522941,13.6178235 C28.5058235,13.8331176 29.7834706,13.9348824 32.3381765,14.1272353 C32.3417059,16.6137059 32.3440588,17.8566471 32.3487647,20.3431176 C34.2193529,20.4307647 35.1552353,20.4725294 37.0258235,20.5531176 L37.0146471,14.4642941 C38.9040588,14.5931176 39.8481765,14.6554706 41.7381765,14.7719412 C41.7487647,20.0125294 41.7587647,25.2525294 41.7693529,30.4931176 C41.4257166,30.4929037 41.1133102,30.4926898 40.8207809,30.4924689 L39.9914716,30.4917777 L39.3853019,30.4911836 C39.2850714,30.4910792 39.1847948,30.4909718 39.0838041,30.490861 L38.4639519,30.4901525 C38.3574348,30.4900265 38.2488684,30.4898963 38.137585,30.4897615 L37.4319388,30.4888936 C37.3071165,30.4887386 37.1782418,30.4885781 37.0446471,30.4884118 C37.0399412,27.7784118 37.0375882,26.4231176 37.0322941,23.7125294 C35.1605294,23.6572353 34.2252353,23.6284118 32.3540588,23.5678235 C32.3593529,26.3342941 32.3617059,27.7172353 32.3658235,30.4842941 C30.4852353,30.4819412 29.5446471,30.4807647 27.6646471,30.4784118 C27.6612059,28.1696471 27.6584794,26.3803544 27.6558244,24.643009 L27.6540579,23.487344 C27.6514029,21.7499985 27.6486765,19.9607059 27.6452353,17.6519412 C27.6428824,16.1701765 27.0022941,14.7660588 25.9522941,13.6178235 Z M159.101294,12.1595294 C158.911686,12.7818824 158.656065,13.6027974 158.399508,14.4207495 L158.259865,14.8654 C157.843006,16.1912025 157.455321,17.4109583 157.381953,17.6416514 L157.369529,17.6807059 C157.213647,17.7071765 155.638353,16.0118824 154.088353,16.1354118 C152.337765,16.2765882 151.463059,16.3442353 149.711882,16.476 C149.711621,16.6895948 149.711385,16.8873613 149.711172,17.0739912 L149.710346,17.8544894 C149.710268,17.9363778 149.710194,18.0172416 149.710123,18.0976671 L149.709346,19.2102306 L149.709206,19.482492 L149.709206,19.482492 L149.708941,20.0807059 L149.708941,20.0807059 C150.552569,20.0331569 151.22044,19.9952075 151.859019,19.9582624 L152.620628,19.9138602 C153.259207,19.8763431 153.927078,19.8363922 154.770706,19.7854118 C154.588118,20.3581176 154.441953,20.8096 154.301605,21.2357835 L154.091619,21.8680753 C153.949435,22.2929412 153.797765,22.7404706 153.606,23.3065882 C152.045412,23.3695294 151.265412,23.4007059 149.705412,23.4607059 L149.70502,23.9163881 L149.704235,24.7151068 L149.703059,25.8096383 L149.703059,25.8096383 L149.702275,26.6087927 C149.702144,26.7532113 149.702013,26.9045621 149.701882,27.0648235 C151.453647,27.0307059 152.330118,27.0136471 154.081882,26.9771765 C155.394914,26.9498009 156.838927,25.6201907 157.252161,25.2117279 L157.338432,25.1248377 L157.354926,25.1077571 L157.354926,25.1077571 L157.368353,25.0936471 L157.368353,25.0936471 C157.457622,25.1067665 157.867704,26.3615129 158.266522,27.6508002 L158.414902,28.1335445 C158.781289,29.332665 159.101294,30.4295294 159.101294,30.4295294 C154.391882,30.4465882 149.683647,30.4612941 144.974235,30.4748235 C144.977147,28.1303235 144.979582,26.3132765 144.982024,24.5489211 L144.983657,23.3752804 C144.986125,21.6108985 144.988706,19.7937059 144.991882,17.4489412 C144.993647,15.9442353 144.357176,14.6089412 143.310118,13.6383529 C148.577765,13.1836471 153.838941,12.6901176 159.101294,12.1595294 Z M51.8377647,21.4601765 C51.773451,21.4601765 51.461817,22.3286732 51.1332767,23.2534662 L51.0097316,23.6013162 C50.8862941,23.9486324 50.7645294,24.2895882 50.6565882,24.5813529 C51.0128382,24.5881912 51.30225,24.5937886 51.5749522,24.5990138 L52.1129301,24.6092252 C52.3856324,24.6143401 52.6750441,24.6196618 53.0312941,24.6260588 C52.9355833,24.3813284 52.8279496,24.1011609 52.7175148,23.8109438 L52.5842324,23.4594842 C52.206098,22.4592216 51.8377647,21.4601765 51.8377647,21.4601765 Z M68.4064706,6.71470588 L68.4064706,11.0694118 C68.4064706,11.5758824 68.8223529,11.86 69.3011765,11.86 C69.7794118,11.86 70.1958824,11.5758824 70.1958824,11.0694118 L70.1958824,6.71470588 L72.0294118,6.71470588 L72.0294118,11.2264706 C72.0294118,12.7976471 70.4882353,13.2388235 69.3011765,13.2388235 C68.1141176,13.2388235 66.5805882,12.7976471 66.5805882,11.2264706 L66.5805882,8.21235294 C66.5805882,7.64294118 66.3329412,7.11882353 65.9252941,6.71470588 L68.4064706,6.71470588 Z M100.783471,6.71476471 C102.422294,6.71476471 103.423471,7.08241176 103.423471,8.37770588 L103.423471,9.25064706 C103.423471,9.91182353 103.157588,10.3353529 102.670529,10.5824118 L103.565235,13.1371176 L101.669353,13.1371176 L100.995824,10.9053529 L99.9240588,10.9053529 L99.9240588,13.1465294 L98.0993529,13.1465294 L98.0993529,8.21241176 C98.0993529,7.643 97.8511176,7.11888235 97.4434706,6.71476471 L100.783471,6.71476471 Z M75.8672941,6.71470588 L78.1608235,9.48058824 L78.1608235,6.71470588 L79.9949412,6.71470588 L79.9949412,13.1464706 C79.4102353,13.1464706 78.8608235,12.7605882 78.0637647,11.8047059 L76.3543529,9.75647059 L76.3543529,13.1464706 L74.5202353,13.1464706 L74.5202353,8.55294118 C74.5202353,7.72588235 74.3167059,7.45 73.6078824,6.71470588 L75.8672941,6.71470588 Z M85.2506471,6.71488235 C86.6059412,6.71488235 87.9706471,7.06370588 87.9706471,8.64429412 L87.9706471,11.2266471 C87.9706471,12.7978235 86.6059412,13.1460588 85.2506471,13.1460588 L82.5306471,13.1460588 L82.5306471,8.21252941 C82.5306471,7.64311765 82.283,7.119 81.8747647,6.71488235 L85.2506471,6.71488235 Z M89.6368235,6.71482353 L95.7768235,6.72423529 L95.1027059,8.61658824 C94.7932941,8.15717647 94.4291765,7.97364706 93.8274118,7.97364706 L92.1262353,7.97364706 L92.1262353,9.306 L94.0927059,9.306 C93.9156471,9.81070588 93.8274118,10.0507059 93.6415294,10.5554118 L92.1262353,10.5554118 L92.1262353,11.8877647 L93.8274118,11.8877647 C94.4291765,11.8877647 94.7932941,11.7042353 95.1027059,11.2448235 C95.1681038,11.4313287 95.253347,11.6718233 95.3411046,11.9184152 L95.4465114,12.214187 C95.6205036,12.7018009 95.7768235,13.1371765 95.7768235,13.1371765 L90.2921176,13.146 L90.2921176,8.21247059 C90.2921176,7.64305882 90.0444706,7.11894118 89.6368235,6.71482353 Z M85.2506471,8.09370588 L84.3553529,8.09370588 L84.3553529,11.7684118 L85.2506471,11.7684118 C85.7288824,11.7684118 86.1453529,11.5754706 86.1453529,11.0695882 L86.1453529,8.79194118 C86.1453529,8.29488235 85.7288824,8.09370588 85.2506471,8.09370588 Z M160.652706,7.25364706 C161.025647,7.25364706 161.374471,7.34776471 161.697412,7.53541176 C162.021529,7.72247059 162.276235,7.97776471 162.464471,8.30011765 C162.651529,8.62305882 162.745059,8.97070588 162.745059,9.34423529 C162.745059,9.71894118 162.652118,10.0671765 162.465647,10.3889412 C162.279176,10.7107059 162.023882,10.9642353 161.700353,11.1512941 C161.376824,11.3377647 161.027412,11.4307059 160.652706,11.4307059 C160.275647,11.4307059 159.925059,11.3383529 159.602706,11.1530588 C159.278588,10.9665882 159.023294,10.7130588 158.837412,10.3901176 C158.650353,10.0677647 158.556824,9.71894118 158.556824,9.34423529 C158.556824,8.96894118 158.650353,8.62011765 158.838588,8.29717647 C159.026235,7.97482353 159.281529,7.72070588 159.604471,7.53305882 C159.928,7.34717647 160.277412,7.25364706 160.652706,7.25364706 Z M160.652706,7.60070588 C160.172118,7.60070588 159.761529,7.77070588 159.420353,8.11188235 C159.079765,8.45305882 158.909176,8.86305882 158.909176,9.34423529 C158.909176,9.82658824 159.079176,10.2365882 159.419176,10.576 C159.759176,10.9148235 160.170353,11.0848235 160.652706,11.0848235 C161.132706,11.0848235 161.543294,10.9142353 161.883294,10.5742353 C162.223882,10.2348235 162.393882,9.82482353 162.393882,9.34423529 C162.393882,8.86305882 162.223294,8.45305882 161.882118,8.11188235 C161.540941,7.77070588 161.130941,7.60070588 160.652706,7.60070588 Z M160.594471,8.21835294 C160.869765,8.21835294 161.064471,8.24011765 161.178,8.28364706 C161.291529,8.32717647 161.382706,8.39952941 161.450941,8.50129412 C161.519176,8.60305882 161.553882,8.71070588 161.553882,8.82541176 C161.553882,8.99717647 161.493294,9.14247059 161.373294,9.26070588 C161.252706,9.37894118 161.098588,9.44541176 160.910353,9.46070588 C160.995647,9.49541176 161.075059,9.55305882 161.149765,9.63364706 C161.225059,9.71364706 161.319176,9.846 161.434471,10.0289412 L161.706235,10.4665882 L161.262706,10.4665882 L161.066235,10.1148235 C160.923294,9.86070588 160.810353,9.69717647 160.728,9.62247059 C160.644471,9.54776471 160.533882,9.51011765 160.394471,9.51011765 L160.178588,9.51011765 L160.178588,10.4665882 L159.815647,10.4665882 L159.815647,8.21835294 L160.594471,8.21835294 Z M100.783471,7.97417647 L99.9240588,7.97417647 L99.9240588,9.65476471 L100.783471,9.65476471 C101.341118,9.65476471 101.598765,9.48064706 101.598765,9.10358824 L101.598765,8.51535294 C101.598765,8.14770588 101.341118,7.97417647 100.783471,7.97417647 Z M160.594471,8.52364706 L160.178588,8.52364706 L160.178588,9.19952941 L160.622118,9.19952941 C160.810353,9.19952941 160.948588,9.17247059 161.035647,9.11835294 C161.122118,9.06364706 161.165647,8.97717647 161.165647,8.85894118 C161.165647,8.73482353 161.122706,8.64776471 161.039176,8.59835294 C160.955059,8.54835294 160.806824,8.52364706 160.594471,8.52364706 Z" id="Content" fill="#FFFFFF"></path>
                </g>
            </g>
        </g>
    </g>
</svg>