<svg xmlns="http://www.w3.org/2000/svg" width="38" height="31" id="app-svg-1.svg" viewBox="0 0 38 31">
    <g fill-rule="evenodd">
        <g fill="#FFF">
            <g>
                <g>
                    <path d="M29.369 40.403h-.394c-1.629-.162-2.964-1.361-3.3-2.963L20.65 14.153l-5.175 12c-.3.685-.977 1.127-1.725 1.125H8.125c-1.036 0-1.875-.84-1.875-1.875 0-1.036.84-1.875 1.875-1.875h4.387L17.22 12.67c.65-1.494 2.19-2.398 3.813-2.236 1.622.163 2.953 1.355 3.293 2.949l5.025 23.269 5.175-11.963c.288-.7.968-1.159 1.725-1.162h5.625c1.036 0 1.875.839 1.875 1.875 0 1.035-.84 1.875-1.875 1.875h-4.388l-4.706 10.856c-.587 1.366-1.926 2.256-3.412 2.269z" transform="translate(-31 -120) translate(0 100) translate(25 10)"/>
                </g>
            </g>
        </g>
    </g>
</svg>
