<svg xmlns="http://www.w3.org/2000/svg" width="34" height="34" viewBox="0 0 34 34">
    <g fill-rule="evenodd">
        <g fill="#FFF">
            <g>
                <g>
                    <path d="M25 20.723c-2.619 0-4.75 2.13-4.75 4.749 0 2.618 2.131 4.748 4.75 4.748 2.618 0 4.749-2.13 4.749-4.748 0-2.619-2.13-4.75-4.749-4.75zm0 12.275c-4.15 0-7.527-3.376-7.527-7.526S20.85 17.945 25 17.945s7.527 3.377 7.527 7.527S29.15 32.998 25 32.998zm-3.166 6.2h6.332v-3.9l.848-.358c.856-.362 1.659-.84 2.384-1.417l.741-.589 3.44 1.985 3.166-5.485-3.596-2.076.086-.89c.033-.333.047-.666.047-.996 0-.509-.037-1.019-.112-1.516l-.139-.936 3.714-2.144-3.167-5.485-3.873 2.236-.727-.52c-.615-.441-1.275-.812-1.964-1.104l-.848-.358v-4.533h-6.332v4.533l-.849.358c-.689.292-1.348.663-1.964 1.103l-.726.521-3.874-2.236-3.166 5.485 3.713 2.144-.138.936c-.075.497-.113 1.007-.113 1.516 0 .33.014.663.047.995l.086.89-3.595 2.077 3.166 5.485 3.44-1.985.742.589c.727.58 1.528 1.055 2.382 1.417l.849.358v3.9zm6.725 2.778H21.44c-1.316 0-2.385-1.071-2.385-2.386v-2.487c-.488-.248-.96-.529-1.411-.837L15.47 37.52c-.553.32-1.198.404-1.81.239-.616-.165-1.131-.56-1.45-1.112l-3.56-6.163c-.656-1.139-.264-2.601.873-3.26l2.42-1.396c-.003-.119-.005-.238-.005-.356 0-.324.011-.65.036-.973l-2.45-1.414c-1.138-.658-1.53-2.12-.873-3.26l3.56-6.162c.31-.543.838-.948 1.447-1.112.607-.161 1.266-.075 1.812.239l2.692 1.554c.29-.18.589-.347.893-.503v-3.12c0-1.316 1.07-2.387 2.385-2.387h7.118c1.315 0 2.384 1.07 2.384 2.386v3.121c.305.156.603.324.894.503l2.691-1.554c.546-.314 1.207-.399 1.813-.24.608.165 1.136.57 1.448 1.116l3.559 6.16c.657 1.139.265 2.601-.873 3.26l-2.451 1.413c.025.324.036.649.036.973 0 .118-.001.237-.005.356l2.419 1.396c1.139.659 1.53 2.121.874 3.26l-3.56 6.163c-.318.552-.833.947-1.449 1.112-.62.165-1.26.08-1.812-.239l-2.171-1.254c-.453.308-.924.589-1.413.837v2.487c0 1.315-1.069 2.386-2.384 2.386z" transform="translate(-33 -317) translate(0 299) translate(25 10)"/>
                </g>
            </g>
        </g>
    </g>
</svg>
