<svg xmlns="http://www.w3.org/2000/svg" id="arrow-back" width="15" height="14" viewBox="0 0 15 14">
    <g fill="none" fill-rule="evenodd">
        <g fill="silver">
            <g>
                <g>
                    <g>
                        <g>
                            <path d="M14.417 10.083H3.545l3.327-3.996c.325-.39.271-.969-.119-1.293-.39-.324-.968-.27-1.292.12l-4.584 5.5c-.03.043-.058.089-.082.137 0 .046 0 .073-.064.119-.042.105-.063.217-.064.33 0 .113.022.225.064.33 0 .046 0 .073.064.12.024.047.052.093.082.137l4.584 5.5c.174.21.433.33.706.33.214 0 .421-.075.586-.211.188-.156.306-.38.328-.622.022-.242-.053-.484-.209-.67l-3.327-3.997h10.872c.506 0 .916-.41.916-.917 0-.506-.41-.917-.916-.917z" transform="translate(-320 -218) translate(301 203) translate(.5 .784) translate(3) translate(15 10)"/>
                        </g>
                    </g>
                </g>
            </g>
        </g>
    </g>
</svg>
