<svg xmlns="http://www.w3.org/2000/svg" width="16" height="16" id="close" viewBox="0 0 16 16">
    <g fill="none" fill-rule="evenodd">
        <g fill="#FFF">
            <g>
                <g>
                    <g>
                        <path d="M4.39 4.39c.521-.52 1.365-.52 1.886 0L12 10.115l5.724-5.723c.52-.521 1.365-.521 1.885 0 .521.52.521 1.364 0 1.885L13.886 12l5.723 5.724c.521.52.521 1.365 0 1.885-.52.521-1.364.521-1.885 0L12 13.886l-5.724 5.723c-.52.521-1.365.521-1.885 0-.521-.52-.521-1.364 0-1.885L10.114 12 4.391 6.276c-.521-.52-.521-1.365 0-1.885z" transform="translate(-1315 -127) translate(578 115) translate(725) translate(8 8)"/>
                    </g>
                </g>
            </g>
        </g>
    </g>
</svg>
