<svg xmlns="http://www.w3.org/2000/svg" id="dots" width="18" height="4" viewBox="0 0 18 4">
    <g fill="none" fill-rule="evenodd">
        <g fill="#FFF">
            <g>
                <g>
                    <path d="M5 10c1.105 0 2 .895 2 2s-.895 2-2 2-2-.895-2-2 .895-2 2-2zm7 0c1.105 0 2 .895 2 2s-.895 2-2 2-2-.895-2-2 .895-2 2-2zm7 0c1.105 0 2 .895 2 2s-.895 2-2 2-2-.895-2-2 .895-2 2-2z" transform="translate(-229 -463) translate(30 453) translate(196)"/>
                </g>
            </g>
        </g>
    </g>
</svg>
