<svg xmlns="http://www.w3.org/2000/svg" width="17" id="face-for-screen" height="26" viewBox="0 0 17 26">
    <g fill-rule="evenodd">
        <g>
            <g>
                <path d="M16.24 25.53c-.153 1.165-.239 1.93-.24 1.933.04-.572.127-1.24.24-1.933M13.852 2.615l3.027 1.773.033.014c-.02.074-.036.146-.053.218 1.963 1.471 4.271 3.567 4.682 5.531l.025.013c.55-.077.72-.105.843-.126l.077-.014c.065-.012.138-.025.274-.047 0 0-.245 1.036-.557 2.594l-.34 5.697-.721.861v.003l-.215 4.698c-1.07 1.204-2.32 2.04-2.878 2.382l-.14.085-.155.089c-.528.355-1.114.72-1.753 1.077.013-.187.259-3.642 1.034-7.097l-.036-.02c-.166-.093-.877-.489-1.601-.879l-.31-.166c-.205-.109-.405-.214-.588-.308-.32-.16-.54-.267-.54-.267l3.749-1.602.863-.37.37.209.073.378-.011.003.342 2.1.168-2.267.045-.594-.374-.17 1.444-.75v-4.129l-2.301 1.493-.74-1.947-.574-1.233.585 3.635-.31.2.001.018-3.41 2.212-.028-13.297zm-6.778 8.898l.62 1.062-.662 3.086 6.632 3.064-3.24 1.623.927 7.103-.005-.036-.008-.058-.027-.18c-.195-1.275-1.026-6.406-1.827-6.9l2.54-1.332-5.501-3.247.636-3.17-.085-1.015zm-.821 5.179c.071.248 1.463 5.113 1.173 6.925-.037.235 1.771 2.093 1.771 2.093-.74-.348-2.186-1.873-2.186-1.873.377-.72-.761-7.155-.761-7.155zm8.565 5.238s.26-.114.178.29c-.082.404-.26.725-.15 1.026.109.3-1.045.415-1.103.383 0 0-.33-.715-.208-.953.123-.238.178-.508.178-.508s.969-.155 1.105-.238zm-1.979-1.244l2.634.073v.274h-.068v.213l-1.679.135c.006-.283-.887-.695-.887-.695zm5.473-6.419v.266l-.425.259c.033.33-.01.668-.153.97-.033.07-.167.378-.264.391l.39-.054c-.477 1.1-.939.925-.939.925l.315-.422c-.529.207-1.528.432-1.876-.218.55.195 1.175.131 1.649-.222.38-.284.813-.867.87-1.365l-2.847 1.735 3.28-2.265zM16.948 15.4s-.146.427-.276.52c-.13.091-.553 0-.553 0l.258-.167zm-6.376 0l.57.353.259.166-.055.01c-.12.022-.398.062-.498-.01-.13-.092-.276-.52-.276-.52zm1.7-11.87l-.207.225-.18.195c-.268.293-.647.705-1.036 1.126l-.292.316c-.582.628-1.129 1.214-1.304 1.386.218-.098.84.216.84.216-1.504.524-3.075 2.434-3.075 2.434.28-1.993 5.254-5.899 5.254-5.899z" transform="translate(-441 -423) translate(435 421)"/>
            </g>
        </g>
    </g>
</svg>
