<svg xmlns="http://www.w3.org/2000/svg" width="14" id="grey-coins" height="14" viewBox="0 0 14 14">
    <g fill="none" fill-rule="evenodd">
        <g fill="#c0c0c0">
            <g>
                <g>
                    <g>
                        <g>
                            <path d="M9.988 14.785c-3.26 0-5.341-1.085-5.341-1.831v-1.275c1.292.799 3.354 1.217 5.341 1.217s4.05-.418 5.342-1.217v1.275c0 .746-2.081 1.83-5.342 1.83zm0-10.119c3.26 0 5.342 1.085 5.342 1.831 0 .747-2.081 1.831-5.342 1.831-3.26 0-5.341-1.084-5.341-1.83 0-.747 2.08-1.832 5.341-1.832zm5.342 5.086c0 .747-2.081 1.831-5.342 1.831-3.26 0-5.341-1.084-5.341-1.831V8.425C5.939 9.223 8 9.64 9.988 9.64s4.05-.418 5.342-1.216v1.327zM9.988 3.333c-3.226 0-6.655 1.102-6.655 3.145v6.476c0 2.042 3.43 3.144 6.655 3.144 3.226 0 6.655-1.102 6.655-3.144V6.478c0-2.043-3.429-3.145-6.655-3.145z" transform="translate(-1705 -44) translate(279) translate(1333) translate(32 18) translate(58 23)"/>
                        </g>
                    </g>
                </g>
            </g>
        </g>
    </g>
</svg>
