<svg xmlns="http://www.w3.org/2000/svg" id="notif" width="16" height="18" viewBox="0 0 16 18">
    <g fill="none" fill-rule="evenodd">
        <g>
            <g>
                <g>
                    <g>
                        <g transform="translate(-1564 -28) translate(279) translate(1272.5 18) translate(8 8) translate(5 2)">
                            <path fill="#FFF" d="M14.008 12.565l-1.44-1.447V7.55c.04-2.74-1.948-5.089-4.656-5.504-1.538-.202-3.088.267-4.255 1.289C2.49 4.356 1.819 5.83 1.817 7.382v3.736l-1.44 1.447c-.37.376-.479.937-.276 1.424.202.487.676.805 1.204.808h2.687v.272c.078 1.691 1.51 3 3.2 2.928 1.691.072 3.122-1.237 3.2-2.928v-.272h2.688c.527-.003 1.001-.321 1.204-.808.202-.487.094-1.048-.276-1.424zm-5.216 2.232v.272c-.092.8-.797 1.385-1.6 1.328-.802.057-1.508-.528-1.6-1.328v-.272h3.2zM7.704 3.598c1.847.3 3.208 1.869 3.263 3.72l.001 3.8c-.003.425.164.834.464 1.136l.952.943H2l.943-.943c.303-.301.473-.71.472-1.136V7.382c.001-1.092.474-2.13 1.296-2.848.812-.736 1.906-1.078 2.992-.936z"/>
                            <circle cx="10" cy="4" r="4" fill="#332a14"/>
                            <circle cx="10" cy="4" r="2" fill="#FFF"/>
                        </g>
                    </g>
                </g>
            </g>
        </g>
    </g>
</svg>
