<svg xmlns="http://www.w3.org/2000/svg" width="13" id="orange-coins" height="13" viewBox="0 0 13 13">
    <g fill="none" fill-rule="evenodd">
        <g fill="#FF8003">
            <g>
                <g>
                    <g>
                        <g>
                            <path d="M9.489 14.045c-3.098 0-5.075-1.03-5.075-1.74v-1.21c1.228.759 3.187 1.156 5.075 1.156 1.887 0 3.846-.397 5.074-1.156v1.21c0 .71-1.977 1.74-5.074 1.74zm0-9.612c3.097 0 5.074 1.03 5.074 1.74 0 .709-1.977 1.739-5.074 1.739-3.098 0-5.075-1.03-5.075-1.74 0-.709 1.977-1.74 5.075-1.74zm5.074 4.831c0 .71-1.977 1.74-5.074 1.74-3.098 0-5.075-1.03-5.075-1.74v-1.26c1.228.758 3.187 1.155 5.075 1.155 1.887 0 3.846-.397 5.074-1.155v1.26zM9.49 3.167c-3.065 0-6.322 1.047-6.322 2.987v6.152c0 1.94 3.257 2.987 6.322 2.987 3.064 0 6.322-1.047 6.322-2.987V6.154c0-1.94-3.258-2.987-6.322-2.987z" transform="translate(-1547 -1835) translate(320 1380) translate(0 390) translate(1224 18) translate(0 44.5)"/>
                        </g>
                    </g>
                </g>
            </g>
        </g>
    </g>
</svg>
