<svg xmlns="http://www.w3.org/2000/svg" id="svg-3" width="16" height="16" viewBox="0 0 16 16">
    <g fill="none" fill-rule="evenodd">
        <g fill="#FFF">
            <g>
                <g>
                    <path d="M11.986 17.742c-3.913 0-6.41-1.302-6.41-2.198v-1.529c1.55.958 4.025 1.46 6.41 1.46 2.384 0 4.859-.502 6.41-1.46v1.53c0 .895-2.498 2.197-6.41 2.197zm0-12.143c3.912 0 6.41 1.302 6.41 2.198 0 .896-2.498 2.197-6.41 2.197-3.913 0-6.41-1.301-6.41-2.197 0-.896 2.497-2.198 6.41-2.198zm6.41 6.103c0 .896-2.498 2.198-6.41 2.198-3.913 0-6.41-1.302-6.41-2.198V10.11c1.55.957 4.025 1.46 6.41 1.46 2.384 0 4.859-.503 6.41-1.46v1.592zM11.986 4C8.114 4 4 5.322 4 7.773v7.771c0 2.451 4.114 3.773 7.986 3.773 3.87 0 7.985-1.322 7.985-3.773v-7.77C19.971 5.321 15.857 4 11.986 4z" transform="translate(-34 -372) translate(30 237) translate(0 131)"/>
                </g>
            </g>
        </g>
    </g>
</svg>
