<svg xmlns="http://www.w3.org/2000/svg" id="svg-1" width="18" height="15" viewBox="0 0 18 15">
    <g fill="none" fill-rule="evenodd">
        <g fill="#FFF">
            <g>
                <g>
                    <path d="M14.097 19.393h-.189c-.782-.077-1.423-.653-1.584-1.422L9.912 6.793l-2.484 5.76c-.144.33-.469.541-.828.54H3.9c-.497 0-.9-.403-.9-.9s.403-.9.9-.9h2.106l2.259-5.21c.312-.718 1.052-1.152 1.83-1.074.779.078 1.418.65 1.581 1.415l2.412 11.17 2.484-5.743c.138-.336.465-.556.828-.558h2.7c.497 0 .9.403.9.9s-.403.9-.9.9h-2.106l-2.259 5.211c-.282.656-.924 1.083-1.638 1.09z" transform="translate(-33 -286) translate(30 237) translate(0 44)"/>
                </g>
            </g>
        </g>
    </g>
</svg>
