<svg xmlns="http://www.w3.org/2000/svg" id="svg-2" width="14" height="20" viewBox="0 0 14 20">
    <g fill="none" fill-rule="evenodd">
        <g fill="#FFF">
            <g>
                <g>
                    <path d="M12.992 20.424c-.123.932-.191 1.544-.191 1.546.03-.458.1-.992.191-1.546m-1.91-18.332l2.422 1.418.025.011-.042.175c1.57 1.177 3.417 2.854 3.746 4.425l.02.01c.782-.11.605-.094.955-.15 0 0-.196.83-.446 2.076l-.271 4.558-.578.688v.002l-.171 3.76-.145.157c-1.11 1.188-2.394 1.887-2.394 1.887l-.325.214c-.334.215-.694.433-1.077.648.012-.176.21-2.928.827-5.678l-.01-.006c-.117-.066-1.256-.7-2.018-1.093l-.432-.213 2.999-1.282.69-.295.296.166.06.302-.01.003.274 1.68.135-1.814.035-.475-.3-.135 1.156-.601V9.227l-1.84 1.194-.592-1.557-.46-.986.468 2.907-.248.161.001.014-2.729 1.77-.022-10.638zM5.658 9.21l.496.85-.53 2.469 5.307 2.451-2.593 1.298.744 5.693-.009-.057c-.084-.568-.798-5.269-1.487-5.692l2.032-1.066-4.4-2.598.508-2.536-.068-.812zM5 13.345s1.179 4.06.941 5.549c-.03.187 1.417 1.674 1.417 1.674-.592-.279-1.749-1.499-1.749-1.499C5.91 18.493 5 13.345 5 13.345zm6.855 4.199s.207-.091.141.232c-.065.323-.207.58-.12.82.088.241-.835.332-.881.307l-.007-.013-.04-.095c-.07-.175-.191-.516-.12-.654.099-.19.142-.406.142-.406s.775-.125.885-.191zm-1.583-.995l2.107.058v.22h-.055v.17l-1.343.107c.005-.226-.71-.555-.71-.555zm4.377-5.135v.212l-.34.207c.027.265-.008.535-.122.777-.026.056-.133.302-.211.313l.312-.044c-.382.88-.751.74-.751.74l.252-.337c-.423.165-1.222.345-1.501-.175.44.156.94.105 1.32-.177.303-.227.65-.694.695-1.093l-2.277 1.389 2.623-1.812zm-1.09.906s-.118.342-.221.415c-.104.074-.443 0-.443 0l.206-.132zm-5.101 0l.456.283.207.132s-.34.074-.443 0c-.104-.073-.22-.415-.22-.415zm1.36-9.497L8.804 3.925l-.405.439c-.448.483-.861.925-.997 1.058.175-.078.673.173.673.173-1.204.42-2.46 1.947-2.46 1.947.224-1.594 4.203-4.719 4.203-4.719z" transform="translate(-35 -327) translate(30 237) translate(0 88)"/>
                </g>
            </g>
        </g>
    </g>
</svg>
