<svg xmlns="http://www.w3.org/2000/svg" id="svg-4" width="20" height="14" viewBox="0 0 20 14">
    <g fill="none" fill-rule="evenodd">
        <g fill="#FFF">
            <g>
                <g>
                    <path d="M21.87 11.5c-.64-1.11-4.16-6.68-10.14-6.5-5.53.14-8.73 5-9.6 6.5-.179.31-.179.69 0 1 .63 1.09 4 6.5 9.89 6.5h.25c5.53-.14 8.74-5 9.6-6.5.179-.31.179-.69 0-1zM12.22 17c-4.31.1-7.12-3.59-8-5 1-1.61 3.61-4.9 7.61-5 4.29-.11 7.11 3.59 8 5-1.03 1.61-3.61 4.9-7.61 5zM12 8.5c-1.933 0-3.5 1.567-3.5 3.5s1.567 3.5 3.5 3.5 3.5-1.567 3.5-3.5-1.567-3.5-3.5-3.5zm0 5c-.828 0-1.5-.672-1.5-1.5s.672-1.5 1.5-1.5 1.5.672 1.5 1.5-.672 1.5-1.5 1.5z" transform="translate(-32 -726) translate(30 673) translate(0 48)"/>
                </g>
            </g>
        </g>
    </g>
</svg>
